<svg width="52" height="54" viewBox="0 0 52 54" fill="none" xmlns="http://www.w3.org/2000/svg">
<path d="M50.9543 11.0214C50.6786 11.0214 50.4141 11.1274 50.2192 11.3161C50.0242 11.5048 49.9146 11.7607 49.9146 12.0276V18.0645C49.9146 18.3314 49.8051 18.5873 49.6101 18.776C49.4151 18.9647 49.1507 19.0707 48.8749 19.0707H34.3192C34.0434 19.0707 33.779 18.9647 33.584 18.776C33.389 18.5873 33.2795 18.3314 33.2795 18.0645V3.97831C33.2795 3.71145 33.389 3.45553 33.584 3.26684C33.779 3.07815 34.0434 2.97215 34.3192 2.97215H40.5574C40.8331 2.97215 41.0976 2.86614 41.2925 2.67745C41.4875 2.48876 41.5971 2.23284 41.5971 1.96599C41.5971 1.69913 41.4875 1.44321 41.2925 1.25452C41.0976 1.06583 40.8331 0.959825 40.5574 0.959825H34.3192C33.4919 0.959825 32.6986 1.27784 32.1136 1.84392C31.5287 2.40999 31.2001 3.17775 31.2001 3.97831V18.0645C31.2001 18.8651 31.5287 19.6329 32.1136 20.1989C32.6986 20.765 33.4919 21.083 34.3192 21.083H48.8749C49.7022 21.083 50.4955 20.765 51.0805 20.1989C51.6654 19.6329 51.994 18.8651 51.994 18.0645V12.0276C51.994 11.7607 51.8845 11.5048 51.6895 11.3161C51.4945 11.1274 51.2301 11.0214 50.9543 11.0214ZM35.3589 11.7861V16.0522C35.3589 16.3191 35.4684 16.575 35.6634 16.7637C35.8584 16.9524 36.1228 17.0584 36.3986 17.0584H40.8069C40.9437 17.0592 41.0794 17.0338 41.206 16.9837C41.3327 16.9336 41.4479 16.8598 41.5451 16.7666L48.7398 9.79391L51.6925 6.99679C51.79 6.90325 51.8673 6.79197 51.9201 6.66936C51.9729 6.54675 52.0001 6.41524 52.0001 6.28241C52.0001 6.14959 51.9729 6.01808 51.9201 5.89547C51.8673 5.77286 51.79 5.66157 51.6925 5.56804L47.2842 1.25161C47.1876 1.15731 47.0726 1.08245 46.9459 1.03137C46.8192 0.98029 46.6833 0.953991 46.546 0.953991C46.4088 0.953991 46.2729 0.98029 46.1462 1.03137C46.0195 1.08245 45.9045 1.15731 45.8078 1.25161L42.8759 4.09904L35.6604 11.0717C35.564 11.1657 35.4878 11.2772 35.436 11.3998C35.3843 11.5224 35.3581 11.6537 35.3589 11.7861ZM46.546 3.38467L49.4884 6.2321L48.012 7.66085L45.0697 4.81342L46.546 3.38467ZM37.4383 12.1986L43.6037 6.2321L46.546 9.07954L40.3806 15.0461H37.4383V12.1986Z" fill="#BCBCBC"/>
<path d="M25.4763 4.97691C27.6352 4.97691 29.1366 4.69138 31.2 5.23956C30.9832 6.56513 31.2 9.86392 31.2 11.9492C31.2 13.1816 31.2 15.0237 31.2 16.9815C31.2 18.6589 31.6585 20.1152 32.6992 20.961C36.4 21.175 38.8049 21.0814 42.0972 21.0853C44.2179 21.0853 45.9918 21.0853 48.1639 20.961C48.7103 22.924 49.4 26.1152 49.4 28.1746C49.4014 31.2486 48.7701 34.292 47.5432 37.1267C46.3163 39.9613 44.5183 42.5302 42.2546 44.683C39.2988 40.9062 35.0962 38.2261 30.3481 37.09C32.0007 36.2122 33.3793 34.9196 34.3393 33.3478C35.2993 31.776 35.8054 29.9827 35.8046 28.1561C35.8006 26.8177 35.5243 25.4933 34.9914 24.2586C34.4585 23.024 33.6796 21.9033 32.6992 20.961C31.4168 19.863 30.5563 19.2729 29.2782 18.7667C28.0001 18.2605 26.6315 18.0037 25.2508 18.011C23.8705 18.0154 22.5046 18.2836 21.2313 18.8004C19.958 19.3171 18.8024 20.0723 17.8306 21.0225C16.8588 21.9728 16.0899 23.0995 15.568 24.3382C15.046 25.5769 14.7812 26.9032 14.7887 28.2413C14.7887 32.0563 17.0011 35.3528 20.2223 37.0825C15.5549 38.1932 11.4092 40.7948 8.4534 44.4682C4.01375 40.1389 1.52772 34.2789 1.54108 28.1746C1.54816 22.0237 4.0723 16.1267 8.55959 11.7776C13.0469 7.4286 19.1308 4.98279 25.4763 4.97691ZM25.3464 19.863C26.476 19.8669 27.5937 20.0869 28.6354 20.5104C29.6771 20.9339 30.6223 21.5526 31.4168 22.331C32.2113 23.1094 32.8394 24.0321 33.2652 25.0464C33.6909 26.0606 33.906 27.1463 33.8979 28.2413C33.8979 32.7304 30.1915 36.3788 25.5909 36.5084C25.4839 36.5084 25.3731 36.4899 25.2623 36.4899C25.1668 36.4899 25.0827 36.4973 24.9872 36.501C22.7575 36.4287 20.6448 35.5166 19.0979 33.9583C17.551 32.4001 16.6919 30.3186 16.7031 28.1561C16.7066 27.0608 16.9332 25.9769 17.3699 24.9668C17.8065 23.9566 18.4447 23.0399 19.2478 22.2694C20.0508 21.4989 21.003 20.8896 22.0495 20.4767C23.0961 20.0637 24.2164 19.8552 25.3464 19.863ZM24.9872 38.3567C25.0789 38.3567 25.1629 38.3826 25.2547 38.3826H25.3464C25.4304 38.3826 25.4992 38.3604 25.5833 38.3567C28.5541 38.4065 31.4736 39.1155 34.1178 40.4291C36.762 41.7428 39.0605 43.6262 40.837 45.9349C36.5399 49.4485 31.098 51.3735 25.4763 51.3686C19.7374 51.3776 14.1895 49.371 9.85955 45.7201C11.6479 43.4695 13.9368 41.6386 16.5559 40.3638C19.1749 39.0889 22.0568 38.4029 24.9872 38.3567Z" fill="#BCBCBC"/>
</svg>
