<svg width="52" height="54" viewBox="0 0 52 54" fill="none" xmlns="http://www.w3.org/2000/svg">
<path d="M50.9543 11.0215C50.6786 11.0215 50.4141 11.1275 50.2192 11.3162C50.0242 11.5049 49.9146 11.7608 49.9146 12.0277V18.0647C49.9146 18.3315 49.8051 18.5874 49.6101 18.7761C49.4151 18.9648 49.1507 19.0708 48.8749 19.0708H34.3192C34.0434 19.0708 33.779 18.9648 33.584 18.7761C33.389 18.5874 33.2795 18.3315 33.2795 18.0647V3.97842C33.2795 3.71157 33.389 3.45564 33.584 3.26695C33.779 3.07826 34.0434 2.97226 34.3192 2.97226H40.5574C40.8331 2.97226 41.0976 2.86625 41.2925 2.67756C41.4875 2.48887 41.5971 2.23295 41.5971 1.9661C41.5971 1.69925 41.4875 1.44332 41.2925 1.25463C41.0976 1.06594 40.8331 0.959936 40.5574 0.959936H34.3192C33.4919 0.959936 32.6986 1.27795 32.1136 1.84403C31.5287 2.4101 31.2001 3.17787 31.2001 3.97842V18.0647C31.2001 18.8652 31.5287 19.633 32.1136 20.199C32.6986 20.7651 33.4919 21.0831 34.3192 21.0831H48.8749C49.7022 21.0831 50.4955 20.7651 51.0805 20.199C51.6654 19.633 51.994 18.8652 51.994 18.0647V12.0277C51.994 11.7608 51.8845 11.5049 51.6895 11.3162C51.4945 11.1275 51.2301 11.0215 50.9543 11.0215ZM35.3589 11.7862V16.0523C35.3589 16.3192 35.4684 16.5751 35.6634 16.7638C35.8584 16.9525 36.1228 17.0585 36.3986 17.0585H40.8069C40.9437 17.0593 41.0794 17.0339 41.206 16.9838C41.3327 16.9337 41.4479 16.86 41.5451 16.7667L48.7398 9.79402L51.6925 6.9969C51.79 6.90336 51.8673 6.79208 51.9201 6.66947C51.9729 6.54686 52.0001 6.41535 52.0001 6.28252C52.0001 6.1497 51.9729 6.01819 51.9201 5.89558C51.8673 5.77297 51.79 5.66168 51.6925 5.56815L47.2842 1.25172C47.1876 1.15742 47.0726 1.08256 46.9459 1.03148C46.8192 0.980401 46.6833 0.954102 46.546 0.954102C46.4088 0.954102 46.2729 0.980401 46.1462 1.03148C46.0195 1.08256 45.9045 1.15742 45.8078 1.25172L42.8759 4.09915L35.6604 11.0718C35.564 11.1659 35.4878 11.2774 35.436 11.3999C35.3843 11.5225 35.3581 11.6538 35.3589 11.7862ZM46.546 3.38478L49.4884 6.23221L48.012 7.66096L45.0697 4.81353L46.546 3.38478ZM37.4383 12.1987L43.6037 6.23221L46.546 9.07965L40.3806 15.0462H37.4383V12.1987Z" fill="#FF9524"/>
<path d="M25.4763 4.97702C27.6352 4.97702 29.1366 4.69149 31.2 5.23967C30.9832 6.56524 31.2 9.86403 31.2 11.9493C31.2 13.1817 31.2 15.0238 31.2 16.9816C31.2 18.659 31.6585 20.1153 32.6992 20.9611C36.4 21.1752 38.8049 21.0815 42.0972 21.0854C44.2179 21.0854 45.9918 21.0854 48.1639 20.9611C48.7103 22.9241 49.4 26.1153 49.4 28.1747C49.4014 31.2487 48.7701 34.2921 47.5432 37.1268C46.3163 39.9614 44.5183 42.5303 42.2546 44.6831C39.2988 40.9063 35.0962 38.2262 30.3481 37.0901C32.0007 36.2123 33.3793 34.9197 34.3393 33.3479C35.2993 31.7761 35.8054 29.9828 35.8046 28.1562C35.8006 26.8178 35.5243 25.4934 34.9914 24.2587C34.4585 23.0241 33.6796 21.9035 32.6992 20.9611C31.4168 19.8631 30.5563 19.273 29.2782 18.7668C28.0001 18.2606 26.6315 18.0038 25.2508 18.0111C23.8705 18.0155 22.5046 18.2837 21.2313 18.8005C19.958 19.3173 18.8024 20.0724 17.8306 21.0226C16.8588 21.9729 16.0899 23.0996 15.568 24.3383C15.046 25.577 14.7812 26.9034 14.7887 28.2414C14.7887 32.0564 17.0011 35.3529 20.2223 37.0827C15.5549 38.1933 11.4092 40.7949 8.4534 44.4683C4.01375 40.139 1.52772 34.279 1.54108 28.1747C1.54816 22.0238 4.0723 16.1268 8.55959 11.7777C13.0469 7.42871 19.1308 4.9829 25.4763 4.97702ZM25.3464 19.8631C26.476 19.867 27.5937 20.087 28.6354 20.5105C29.6771 20.934 30.6223 21.5527 31.4168 22.3311C32.2113 23.1095 32.8394 24.0322 33.2652 25.0465C33.6909 26.0607 33.906 27.1464 33.8979 28.2414C33.8979 32.7305 30.1915 36.3789 25.5909 36.5085C25.4839 36.5085 25.3731 36.49 25.2623 36.49C25.1668 36.49 25.0827 36.4974 24.9872 36.5011C22.7575 36.4289 20.6448 35.5167 19.0979 33.9584C17.551 32.4002 16.6919 30.3187 16.7031 28.1562C16.7066 27.0609 16.9332 25.9771 17.3699 24.9669C17.8065 23.9567 18.4447 23.04 19.2478 22.2695C20.0508 21.499 21.003 20.8897 22.0495 20.4768C23.0961 20.0638 24.2164 19.8553 25.3464 19.8631ZM24.9872 38.3568C25.0789 38.3568 25.1629 38.3827 25.2547 38.3827H25.3464C25.4304 38.3827 25.4992 38.3605 25.5833 38.3568C28.5541 38.4066 31.4736 39.1156 34.1178 40.4292C36.762 41.7429 39.0605 43.6264 40.837 45.935C36.5399 49.4486 31.098 51.3736 25.4763 51.3687C19.7374 51.3778 14.1895 49.3711 9.85955 45.7202C11.6479 43.4696 13.9368 41.6387 16.5559 40.3639C19.1749 39.0891 22.0568 38.403 24.9872 38.3568Z" fill="#FF9524"/>
</svg>
