<svg width="112" height="112" viewBox="0 0 112 112" fill="none" xmlns="http://www.w3.org/2000/svg">
<path d="M111.938 71.765L107 53.7661L110.87 51.3543C111.69 50.8431 111.94 49.7638 111.429 48.9435L101.153 32.455L100.826 31.2617C100.662 30.6645 100.208 30.2262 99.6575 30.0547L89.215 13.2991C88.9693 12.9053 88.5776 12.6249 88.1254 12.5199C87.6735 12.4151 87.1979 12.4938 86.8042 12.7393L27.8882 49.4569L15.9775 52.7246H1.75C0.783562 52.7246 0 53.5082 0 54.4746V96.4746C0 97.441 0.783562 98.2246 1.75 98.2246H92.75C93.7164 98.2246 94.5 97.441 94.5 96.4746V78.3636L110.713 73.9158C111.161 73.7931 111.541 73.4973 111.771 73.0942C112 72.6908 112.06 72.2128 111.938 71.765ZM107.533 49.3095L106.034 50.244L104.396 44.276L107.533 49.3095ZM87.1699 16.6354L95.9825 30.7759L92.4606 31.7421L89.7531 27.3977C89.5075 27.004 89.1157 26.7235 88.6635 26.6185C88.212 26.5137 87.7362 26.5925 87.3423 26.8379C84.8855 28.3692 81.6412 27.616 80.11 25.1592C79.5988 24.3392 78.5194 24.0885 77.6991 24.5997L45.6194 44.5926L39.7092 46.2139L87.1699 16.6354ZM88.9385 32.7081L57.4407 41.3494L78.2145 28.4027C80.6175 30.9388 84.3413 31.8036 87.6155 30.5849L88.9385 32.7081ZM91 94.7246H3.5V56.2246H91V94.7246ZM92.75 52.7246H49.0501L85.969 42.596C86.7359 44.1174 87.9325 45.3807 89.4467 46.243C90.9611 47.1053 92.6577 47.4899 94.3578 47.3729L98.1542 61.2114C96.5891 62.0042 95.3332 63.2366 94.4998 64.7086V54.4746C94.5 53.5082 93.7164 52.7246 92.75 52.7246ZM94.5 74.7343V72.9196L95.8228 72.5567C96.7549 72.301 97.3031 71.338 97.0473 70.4059C96.2815 67.6143 97.9296 64.72 100.721 63.9539C101.653 63.6982 102.202 62.7353 101.946 61.8032L97.3158 44.9268C97.193 44.4792 96.8973 44.0988 96.4941 43.8692C96.091 43.6397 95.613 43.5793 95.1652 43.7023C93.8133 44.0732 92.3972 43.8954 91.1785 43.2015C89.9598 42.5077 89.0844 41.3807 88.7134 40.0283C88.4577 39.0962 87.4956 38.5474 86.5627 38.8038L35.8207 52.7246H29.2062L97.9132 33.8753L108.099 71.0036L94.5 74.7343Z" fill="#6AC047"/>
<path d="M8.75 85.9746C11.6447 85.9746 14 88.3299 14 91.2246C14 92.191 14.7836 92.9746 15.75 92.9746H78.75C79.7164 92.9746 80.5 92.191 80.5 91.2246C80.5 88.3299 82.8553 85.9746 85.75 85.9746C86.7164 85.9746 87.5 85.191 87.5 84.2246V66.7246C87.5 65.7582 86.7164 64.9746 85.75 64.9746C82.8553 64.9746 80.5 62.6193 80.5 59.7246C80.5 58.7582 79.7164 57.9746 78.75 57.9746H15.75C14.7836 57.9746 14 58.7582 14 59.7246C14 62.6193 11.6447 64.9746 8.75 64.9746C7.78356 64.9746 7 65.7582 7 66.7246V84.2246C7 85.1913 7.78356 85.9746 8.75 85.9746ZM33.25 75.4746C33.25 67.7549 39.5303 61.4746 47.25 61.4746C54.9697 61.4746 61.25 67.7549 61.25 75.4746C61.25 83.1943 54.9697 89.4746 47.25 89.4746C39.5303 89.4746 33.25 83.1943 33.25 75.4746ZM77.1759 61.4746C77.8737 64.8978 80.5768 67.6009 84 68.2987V82.6503C80.5768 83.3481 77.8737 86.0512 77.1759 89.4744H57.738C61.9927 86.2791 64.75 81.193 64.75 75.4744C64.75 69.7558 61.9924 64.6697 57.738 61.4744H77.1759V61.4746ZM10.5 68.299C13.9232 67.6011 16.6263 64.898 17.3241 61.4748H36.762C32.5073 64.6701 29.75 69.7563 29.75 75.4748C29.75 81.1934 32.5076 86.2795 36.762 89.4748H17.3241C16.6263 86.0514 13.9232 83.3483 10.5 82.6505V68.299Z" fill="#6AC047"/>
<path d="M50.75 71.9746C50.75 72.941 51.5336 73.7246 52.5 73.7246C53.4664 73.7246 54.25 72.941 54.25 71.9746C54.25 69.0799 51.8947 66.7246 49 66.7246V64.9746C49 64.0082 48.2164 63.2246 47.25 63.2246C46.2836 63.2246 45.5 64.0082 45.5 64.9746V66.7246C42.6053 66.7246 40.25 69.0799 40.25 71.9746C40.25 74.8693 42.6053 77.2246 45.5 77.2246V80.7246C44.5351 80.7246 43.75 79.9395 43.75 78.9746C43.75 78.0082 42.9664 77.2246 42 77.2246C41.0336 77.2246 40.25 78.0082 40.25 78.9746C40.25 81.8693 42.6053 84.2246 45.5 84.2246V85.9746C45.5 86.941 46.2836 87.7246 47.25 87.7246C48.2164 87.7246 49 86.941 49 85.9746V84.2246C51.8947 84.2246 54.25 81.8693 54.25 78.9746C54.25 76.0799 51.8947 73.7246 49 73.7246V70.2246C49.9649 70.2246 50.75 71.0097 50.75 71.9746ZM50.75 78.9746C50.75 79.9395 49.9649 80.7246 49 80.7246V77.2246C49.9649 77.2246 50.75 78.0097 50.75 78.9746ZM45.5 73.7246C44.5351 73.7246 43.75 72.9395 43.75 71.9746C43.75 71.0097 44.5351 70.2246 45.5 70.2246V73.7246Z" fill="#6AC047"/>
</svg>
