<svg width="148" height="154" viewBox="0 0 148 154" fill="none" xmlns="http://www.w3.org/2000/svg">
<rect x="1" y="1" width="146" height="152" rx="73" stroke="#00293D" stroke-width="2"/>
<path d="M107.671 93.4743L107.671 93.4744C110.219 94.8298 112.313 96.688 113.76 98.8785C115.207 101.069 115.962 103.521 115.956 106.012V121.956H32.0441L32.0441 106.012L32.0441 106.012C32.0383 103.521 32.7931 101.069 34.2401 98.8784C35.6872 96.688 37.7805 94.8297 40.3294 93.4744L40.3295 93.4743L56.9521 84.5992L56.9948 84.5764L56.968 84.536L50.7011 75.0986C49.2448 72.9014 48.4811 70.4406 48.4788 67.9402V53C48.4788 47.4452 51.1651 42.1158 55.9506 38.1848C60.7364 34.2536 67.2289 32.044 74 32.044C80.7711 32.044 87.2636 34.2536 92.0494 38.1848C96.8349 42.1158 99.5212 47.4452 99.5212 53V67.9401C99.5189 70.4405 98.7553 72.9013 97.2989 75.0984L91.032 84.536L91.0052 84.5764L91.0479 84.5992L107.671 93.4743ZM108.696 116.044H108.74V116V106.012C108.743 104.503 108.286 103.018 107.411 101.693C106.535 100.368 105.27 99.2455 103.732 98.4273C103.732 98.4273 103.732 98.4273 103.732 98.4273L81.4819 86.5478L90.9597 72.2742L90.9597 72.2742C91.8407 70.945 92.3035 69.4551 92.3049 67.9402V53C92.3049 49.007 90.3738 45.1797 86.9403 42.3594C83.5071 39.5393 78.8523 37.956 74 37.956C69.1477 37.956 64.4929 39.5393 61.0597 42.3594C57.6262 45.1797 55.6951 49.007 55.6951 53V67.9402C55.6965 69.4551 56.1593 70.945 57.0403 72.2742L57.0403 72.2742L66.5183 86.5478L44.2691 98.4273C44.2691 98.4273 44.2691 98.4273 44.2691 98.4273C42.7304 99.2455 41.4651 100.368 40.5898 101.693C39.7143 103.018 39.2569 104.503 39.2604 106.012V116V116.044H39.3044H108.696Z" fill="#6EC34B" stroke="#506D7B" stroke-width="0.0880423"/>
</svg>
