<svg width="200" height="200" viewBox="0 0 200 200" fill="none" xmlns="http://www.w3.org/2000/svg">
<path d="M1.5 100C1.5 45.6 45.6 1.5 100 1.5C154.4 1.5 198.5 45.6 198.5 100C198.5 154.4 154.4 198.5 100 198.5C45.6 198.5 1.5 154.4 1.5 100Z" fill="#F0F0F1" stroke="#00293D" stroke-width="3"/>
<path d="M140.088 119.605L140.088 119.605C143.123 121.219 145.617 123.432 147.34 126.041C149.064 128.65 149.963 131.571 149.956 134.538V153.527H50.0441L50.0441 134.538L50.0441 134.538C50.0372 131.571 50.9363 128.65 52.6598 126.041C54.3834 123.432 56.8765 121.219 59.912 119.605L59.9121 119.605L79.7009 109.039L79.7437 109.016L79.7169 108.976L72.2563 97.7411C70.5216 95.124 69.612 92.1929 69.6093 89.2145V71.4286C69.6093 64.8129 72.8086 58.466 78.5073 53.7849C84.2063 49.1036 91.9374 46.4726 100 46.4726C108.063 46.4726 115.794 49.1036 121.493 53.7849C127.191 58.466 130.391 64.8129 130.391 71.4286V89.2145C130.388 92.1928 129.478 95.1239 127.744 97.7408L120.283 108.976L120.256 109.016L120.299 109.039L140.088 119.605ZM141.304 146.473H141.348V146.429V134.538C141.353 132.744 140.809 130.978 139.767 129.401C138.726 127.825 137.221 126.49 135.391 125.516C135.391 125.516 135.391 125.516 135.391 125.516L108.895 111.369L120.183 94.3694L120.146 94.3451L120.183 94.3694C121.231 92.7883 121.781 91.0162 121.783 89.2146V71.4286C121.783 66.6778 119.486 62.1238 115.4 58.7677C111.314 55.4117 105.775 53.5274 100 53.5274C94.2253 53.5274 88.6857 55.4117 84.6002 58.7677C80.5144 62.1238 78.2169 66.6778 78.2169 71.4286V89.2145C78.2186 91.0162 78.7689 92.7883 79.8169 94.3694L79.8169 94.3694L91.1053 111.369L64.6101 125.516C64.61 125.516 64.61 125.516 64.61 125.516C62.7794 126.49 61.2742 127.825 60.2329 129.401C59.1916 130.977 58.6476 132.744 58.6517 134.538C58.6517 134.538 58.6517 134.538 58.6517 134.538L58.6517 146.429V146.473H58.6957H141.304Z" fill="#6EC34B" stroke="#506D7B" stroke-width="0.0880423"/>
</svg>
