<svg width="100" height="40" viewBox="0 0 100 40" fill="none" xmlns="http://www.w3.org/2000/svg">
<path fill-rule="evenodd" clip-rule="evenodd" d="M17.8228 0H44V40H17.8228V36.9231H40.6582V3.07692H17.8228V0ZM19.0043 8.65573L31.325 20L19.0043 31.3443L16.6413 29.1686L24.9282 21.5385H1.52588e-05V18.4615H24.9282L16.6413 10.8314L19.0043 8.65573Z" fill="#DADADA"/>
<path d="M49.62 26.5V13.36H52.176V26.5H49.62ZM51.816 26.5V24.25H57.486V26.5H51.816ZM63.9638 26.842C63.0998 26.842 62.3378 26.704 61.6778 26.428C61.0178 26.152 60.4598 25.78 60.0038 25.312C59.5478 24.832 59.1998 24.292 58.9598 23.692C58.7318 23.092 58.6178 22.468 58.6178 21.82V21.442C58.6178 20.77 58.7378 20.134 58.9778 19.534C59.2298 18.922 59.5838 18.382 60.0398 17.914C60.5078 17.434 61.0718 17.062 61.7318 16.798C62.3918 16.522 63.1358 16.384 63.9638 16.384C64.7918 16.384 65.5358 16.522 66.1958 16.798C66.8558 17.062 67.4138 17.434 67.8698 17.914C68.3378 18.382 68.6918 18.922 68.9318 19.534C69.1718 20.134 69.2918 20.77 69.2918 21.442V21.82C69.2918 22.468 69.1718 23.092 68.9318 23.692C68.7038 24.292 68.3618 24.832 67.9058 25.312C67.4498 25.78 66.8918 26.152 66.2318 26.428C65.5718 26.704 64.8158 26.842 63.9638 26.842ZM63.9638 24.7C64.5758 24.7 65.0918 24.568 65.5118 24.304C65.9318 24.028 66.2498 23.662 66.4658 23.206C66.6818 22.738 66.7898 22.21 66.7898 21.622C66.7898 21.022 66.6758 20.494 66.4478 20.038C66.2318 19.57 65.9078 19.204 65.4758 18.94C65.0558 18.664 64.5518 18.526 63.9638 18.526C63.3758 18.526 62.8658 18.664 62.4338 18.94C62.0138 19.204 61.6898 19.57 61.4618 20.038C61.2338 20.494 61.1198 21.022 61.1198 21.622C61.1198 22.21 61.2278 22.738 61.4438 23.206C61.6718 23.662 61.9958 24.028 62.4158 24.304C62.8358 24.568 63.3518 24.7 63.9638 24.7ZM75.2986 30.352C74.8306 30.352 74.3506 30.334 73.8586 30.298C73.3786 30.262 72.9286 30.214 72.5086 30.154V28.066C72.9406 28.114 73.4026 28.156 73.8946 28.192C74.3866 28.24 74.8486 28.264 75.2806 28.264C76.0846 28.264 76.7326 28.168 77.2246 27.976C77.7286 27.784 78.0946 27.478 78.3226 27.058C78.5626 26.65 78.6826 26.128 78.6826 25.492V23.566L79.2226 22.342C79.1866 23.242 79.0006 24.01 78.6646 24.646C78.3286 25.27 77.8726 25.75 77.2966 26.086C76.7206 26.41 76.0546 26.572 75.2986 26.572C74.6266 26.572 74.0146 26.446 73.4626 26.194C72.9226 25.942 72.4546 25.594 72.0586 25.15C71.6746 24.706 71.3746 24.184 71.1586 23.584C70.9426 22.984 70.8346 22.342 70.8346 21.658V21.28C70.8346 20.596 70.9426 19.96 71.1586 19.372C71.3866 18.772 71.7046 18.25 72.1126 17.806C72.5206 17.362 73.0066 17.02 73.5706 16.78C74.1346 16.54 74.7586 16.42 75.4426 16.42C76.2466 16.42 76.9426 16.594 77.5306 16.942C78.1306 17.29 78.5986 17.794 78.9346 18.454C79.2706 19.114 79.4566 19.924 79.4926 20.884L79.0606 20.956V16.726H81.0406V25.348C81.0406 26.536 80.8366 27.496 80.4286 28.228C80.0206 28.96 79.3906 29.494 78.5386 29.83C77.6986 30.178 76.6186 30.352 75.2986 30.352ZM76.0186 24.43C76.4986 24.43 76.9366 24.322 77.3326 24.106C77.7286 23.89 78.0466 23.578 78.2866 23.17C78.5266 22.762 78.6466 22.27 78.6466 21.694V21.064C78.6466 20.512 78.5206 20.044 78.2686 19.66C78.0286 19.276 77.7106 18.988 77.3146 18.796C76.9186 18.592 76.4866 18.49 76.0186 18.49C75.4906 18.49 75.0226 18.616 74.6146 18.868C74.2186 19.108 73.9066 19.45 73.6786 19.894C73.4506 20.338 73.3366 20.866 73.3366 21.478C73.3366 22.078 73.4506 22.6 73.6786 23.044C73.9066 23.488 74.2186 23.83 74.6146 24.07C75.0226 24.31 75.4906 24.43 76.0186 24.43ZM84.2377 26.5V16.726H86.7397V26.5H84.2377ZM82.8697 18.598V16.726H86.7397V18.598H82.8697ZM85.1557 15.556C84.6637 15.556 84.2977 15.43 84.0577 15.178C83.8297 14.914 83.7157 14.59 83.7157 14.206C83.7157 13.798 83.8297 13.468 84.0577 13.216C84.2977 12.964 84.6637 12.838 85.1557 12.838C85.6477 12.838 86.0077 12.964 86.2357 13.216C86.4637 13.468 86.5777 13.798 86.5777 14.206C86.5777 14.59 86.4637 14.914 86.2357 15.178C86.0077 15.43 85.6477 15.556 85.1557 15.556ZM89.6232 26.5V16.726H91.6032V20.92H91.4232C91.4232 19.924 91.5552 19.096 91.8192 18.436C92.0832 17.764 92.4732 17.26 92.9892 16.924C93.5172 16.588 94.1712 16.42 94.9512 16.42H95.0592C96.2232 16.42 97.1052 16.798 97.7052 17.554C98.3052 18.298 98.6052 19.414 98.6052 20.902V26.5H96.1032V20.686C96.1032 20.086 95.9292 19.6 95.5812 19.228C95.2452 18.856 94.7772 18.67 94.1772 18.67C93.5652 18.67 93.0672 18.862 92.6832 19.246C92.3112 19.618 92.1252 20.122 92.1252 20.758V26.5H89.6232Z" fill="#DADADA"/>
</svg>
