<svg width="171" height="54" viewBox="0 0 171 54" fill="none" xmlns="http://www.w3.org/2000/svg">
<path d="M50.9543 11.0214C50.6785 11.0214 50.4141 11.1274 50.2191 11.3161C50.0241 11.5048 49.9146 11.7607 49.9146 12.0276V18.0645C49.9146 18.3314 49.8051 18.5873 49.6101 18.776C49.4151 18.9647 49.1506 19.0707 48.8749 19.0707H34.3191C34.0434 19.0707 33.7789 18.9647 33.5839 18.776C33.389 18.5873 33.2794 18.3314 33.2794 18.0645V3.97829C33.2794 3.71144 33.389 3.45552 33.5839 3.26683C33.7789 3.07814 34.0434 2.97213 34.3191 2.97213H40.5573C40.8331 2.97213 41.0975 2.86613 41.2925 2.67744C41.4875 2.48874 41.597 2.23282 41.597 1.96597C41.597 1.69912 41.4875 1.4432 41.2925 1.25451C41.0975 1.06582 40.8331 0.959814 40.5573 0.959814H34.3191C33.4919 0.959814 32.6985 1.27783 32.1136 1.84391C31.5286 2.40998 31.2 3.17774 31.2 3.97829V18.0645C31.2 18.8651 31.5286 19.6328 32.1136 20.1989C32.6985 20.765 33.4919 21.083 34.3191 21.083H48.8749C49.7021 21.083 50.4955 20.765 51.0804 20.1989C51.6654 19.6328 51.994 18.8651 51.994 18.0645V12.0276C51.994 11.7607 51.8845 11.5048 51.6895 11.3161C51.4945 11.1274 51.23 11.0214 50.9543 11.0214ZM35.3588 11.7861V16.0522C35.3588 16.3191 35.4684 16.575 35.6633 16.7637C35.8583 16.9524 36.1228 17.0584 36.3985 17.0584H40.8068C40.9437 17.0591 41.0793 17.0338 41.206 16.9837C41.3327 16.9336 41.4479 16.8598 41.545 16.7666L48.7397 9.7939L51.6925 6.99677C51.7899 6.90324 51.8673 6.79196 51.9201 6.66935C51.9728 6.54674 52 6.41523 52 6.2824C52 6.14957 51.9728 6.01806 51.9201 5.89545C51.8673 5.77284 51.7899 5.66156 51.6925 5.56803L47.2842 1.2516C47.1875 1.15729 47.0725 1.08244 46.9458 1.03136C46.8191 0.980279 46.6832 0.953979 46.546 0.953979C46.4087 0.953979 46.2728 0.980279 46.1461 1.03136C46.0194 1.08244 45.9044 1.15729 45.8078 1.2516L42.8758 4.09903L35.6603 11.0717C35.564 11.1657 35.4877 11.2772 35.436 11.3998C35.3842 11.5224 35.358 11.6537 35.3588 11.7861ZM46.546 3.38466L49.4883 6.23209L48.0119 7.66084L45.0696 4.81341L46.546 3.38466ZM37.4382 12.1986L43.6036 6.23209L46.546 9.07952L40.3806 15.0461H37.4382V12.1986Z" fill="#6EC34B"/>
<path d="M25.4763 4.9769C27.6352 4.9769 29.1366 4.69136 31.2 5.23955C30.9832 6.56512 31.2 9.86391 31.2 11.9492C31.2 13.1816 31.2 15.0237 31.2 16.9815C31.2 18.6589 31.6585 20.1152 32.6992 20.9609C36.4 21.175 38.8049 21.0814 42.0972 21.0853C44.2179 21.0853 45.9918 21.0853 48.1639 20.9609C48.7103 22.924 49.4 26.1152 49.4 28.1746C49.4014 31.2486 48.7701 34.292 47.5432 37.1267C46.3163 39.9613 44.5183 42.5302 42.2546 44.683C39.2988 40.9062 35.0962 38.2261 30.3481 37.0899C32.0007 36.2122 33.3793 34.9196 34.3393 33.3478C35.2993 31.776 35.8054 29.9827 35.8046 28.1561C35.8006 26.8177 35.5243 25.4933 34.9914 24.2586C34.4585 23.024 33.6796 21.9033 32.6992 20.9609C31.4168 19.863 30.5563 19.2729 29.2782 18.7667C28.0001 18.2605 26.6315 18.0037 25.2508 18.011C23.8705 18.0154 22.5046 18.2836 21.2313 18.8004C19.958 19.3171 18.8024 20.0723 17.8306 21.0225C16.8588 21.9728 16.0899 23.0995 15.568 24.3382C15.046 25.5769 14.7812 26.9032 14.7887 28.2413C14.7887 32.0563 17.0011 35.3528 20.2223 37.0825C15.5549 38.1932 11.4092 40.7948 8.4534 44.4682C4.01375 40.1389 1.52772 34.2789 1.54108 28.1746C1.54816 22.0236 4.0723 16.1266 8.55959 11.7776C13.0469 7.42858 19.1308 4.98278 25.4763 4.9769ZM25.3464 19.863C26.476 19.8668 27.5937 20.0869 28.6354 20.5104C29.6771 20.9339 30.6223 21.5526 31.4168 22.331C32.2113 23.1094 32.8394 24.0321 33.2652 25.0463C33.6909 26.0606 33.906 27.1463 33.8979 28.2413C33.8979 32.7304 30.1915 36.3788 25.5909 36.5084C25.4839 36.5084 25.3731 36.4899 25.2623 36.4899C25.1668 36.4899 25.0827 36.4973 24.9872 36.501C22.7575 36.4287 20.6448 35.5166 19.0979 33.9583C17.551 32.4001 16.6919 30.3186 16.7031 28.1561C16.7066 27.0608 16.9332 25.9769 17.3699 24.9667C17.8065 23.9566 18.4447 23.0399 19.2478 22.2694C20.0508 21.4988 21.003 20.8896 22.0495 20.4767C23.0961 20.0637 24.2164 19.8552 25.3464 19.863ZM24.9872 38.3567C25.0789 38.3567 25.1629 38.3826 25.2547 38.3826H25.3464C25.4304 38.3826 25.4992 38.3604 25.5833 38.3567C28.5541 38.4065 31.4736 39.1155 34.1178 40.4291C36.762 41.7428 39.0605 43.6262 40.837 45.9349C36.5399 49.4485 31.098 51.3735 25.4763 51.3686C19.7374 51.3776 14.1895 49.371 9.85955 45.7201C11.6479 43.4694 13.9368 41.6386 16.5559 40.3638C19.1749 39.0889 22.0568 38.4029 24.9872 38.3567Z" fill="#6EC34B"/>
<path d="M63.542 33.842C62.354 33.842 61.334 33.632 60.482 33.212C59.63 32.792 58.934 32.246 58.394 31.574C57.866 30.902 57.476 30.17 57.224 29.378C56.972 28.586 56.846 27.824 56.846 27.092V26.696C56.846 25.88 56.972 25.076 57.224 24.284C57.488 23.492 57.89 22.772 58.43 22.124C58.97 21.476 59.654 20.96 60.482 20.576C61.322 20.18 62.312 19.982 63.452 19.982C64.64 19.982 65.672 20.198 66.548 20.63C67.436 21.05 68.144 21.65 68.672 22.43C69.2 23.198 69.518 24.098 69.626 25.13H67.052C66.956 24.53 66.74 24.026 66.404 23.618C66.08 23.198 65.666 22.886 65.162 22.682C64.658 22.466 64.088 22.358 63.452 22.358C62.804 22.358 62.228 22.472 61.724 22.7C61.22 22.916 60.8 23.228 60.464 23.636C60.128 24.044 59.87 24.524 59.69 25.076C59.522 25.628 59.438 26.24 59.438 26.912C59.438 27.56 59.522 28.16 59.69 28.712C59.87 29.264 60.134 29.75 60.482 30.17C60.83 30.578 61.256 30.896 61.76 31.124C62.276 31.352 62.87 31.466 63.542 31.466C64.526 31.466 65.354 31.226 66.026 30.746C66.71 30.254 67.124 29.57 67.268 28.694H69.842C69.722 29.63 69.404 30.488 68.888 31.268C68.372 32.048 67.664 32.672 66.764 33.14C65.864 33.608 64.79 33.842 63.542 33.842ZM77.7229 33.5V30.602H77.3089V27.38C77.3089 26.816 77.1709 26.396 76.8949 26.12C76.6189 25.844 76.1929 25.706 75.6169 25.706C75.3169 25.706 74.9569 25.712 74.5369 25.724C74.1169 25.736 73.6909 25.754 73.2589 25.778C72.8389 25.79 72.4609 25.808 72.1249 25.832V23.708C72.4009 23.684 72.7129 23.66 73.0609 23.636C73.4089 23.612 73.7629 23.6 74.1229 23.6C74.4949 23.588 74.8429 23.582 75.1669 23.582C76.1749 23.582 77.0089 23.714 77.6689 23.978C78.3409 24.242 78.8449 24.656 79.1809 25.22C79.5289 25.784 79.7029 26.522 79.7029 27.434V33.5H77.7229ZM74.5729 33.752C73.8649 33.752 73.2409 33.626 72.7009 33.374C72.1729 33.122 71.7589 32.762 71.4589 32.294C71.1709 31.826 71.0269 31.262 71.0269 30.602C71.0269 29.882 71.2009 29.294 71.5489 28.838C71.9089 28.382 72.4069 28.04 73.0429 27.812C73.6909 27.584 74.4469 27.47 75.3109 27.47H77.5789V28.964H75.2749C74.6989 28.964 74.2549 29.108 73.9429 29.396C73.6429 29.672 73.4929 30.032 73.4929 30.476C73.4929 30.92 73.6429 31.28 73.9429 31.556C74.2549 31.832 74.6989 31.97 75.2749 31.97C75.6229 31.97 75.9409 31.91 76.2289 31.79C76.5289 31.658 76.7749 31.442 76.9669 31.142C77.1709 30.83 77.2849 30.41 77.3089 29.882L77.9209 30.584C77.8609 31.268 77.6929 31.844 77.4169 32.312C77.1529 32.78 76.7809 33.14 76.3009 33.392C75.8329 33.632 75.2569 33.752 74.5729 33.752ZM86.433 33.824C85.749 33.824 85.119 33.698 84.543 33.446C83.967 33.194 83.469 32.84 83.049 32.384C82.629 31.928 82.305 31.4 82.077 30.8C81.849 30.188 81.735 29.528 81.735 28.82V28.442C81.735 27.746 81.843 27.092 82.059 26.48C82.287 25.868 82.599 25.334 82.995 24.878C83.403 24.422 83.889 24.068 84.453 23.816C85.029 23.552 85.665 23.42 86.361 23.42C87.129 23.42 87.801 23.588 88.377 23.924C88.965 24.248 89.433 24.74 89.781 25.4C90.129 26.06 90.321 26.888 90.357 27.884L89.619 27.02V20.36H92.121V33.5H90.141V29.342H90.573C90.537 30.338 90.333 31.172 89.961 31.844C89.589 32.504 89.097 33.002 88.485 33.338C87.885 33.662 87.201 33.824 86.433 33.824ZM86.991 31.718C87.483 31.718 87.933 31.61 88.341 31.394C88.749 31.166 89.073 30.842 89.313 30.422C89.565 29.99 89.691 29.486 89.691 28.91V28.19C89.691 27.614 89.565 27.134 89.313 26.75C89.061 26.354 88.731 26.054 88.323 25.85C87.915 25.634 87.471 25.526 86.991 25.526C86.451 25.526 85.971 25.658 85.551 25.922C85.143 26.174 84.819 26.534 84.579 27.002C84.351 27.47 84.237 28.016 84.237 28.64C84.237 29.264 84.357 29.81 84.597 30.278C84.837 30.734 85.161 31.088 85.569 31.34C85.989 31.592 86.463 31.718 86.991 31.718ZM100.891 33.5V30.602H100.477V27.38C100.477 26.816 100.339 26.396 100.063 26.12C99.7869 25.844 99.3609 25.706 98.7849 25.706C98.4849 25.706 98.1249 25.712 97.7049 25.724C97.2849 25.736 96.8589 25.754 96.4269 25.778C96.0069 25.79 95.6289 25.808 95.2929 25.832V23.708C95.5689 23.684 95.8809 23.66 96.2289 23.636C96.5769 23.612 96.9309 23.6 97.2909 23.6C97.6629 23.588 98.0109 23.582 98.3349 23.582C99.3429 23.582 100.177 23.714 100.837 23.978C101.509 24.242 102.013 24.656 102.349 25.22C102.697 25.784 102.871 26.522 102.871 27.434V33.5H100.891ZM97.7409 33.752C97.0329 33.752 96.4089 33.626 95.8689 33.374C95.3409 33.122 94.9269 32.762 94.6269 32.294C94.3389 31.826 94.1949 31.262 94.1949 30.602C94.1949 29.882 94.3689 29.294 94.7169 28.838C95.0769 28.382 95.5749 28.04 96.2109 27.812C96.8589 27.584 97.6149 27.47 98.4789 27.47H100.747V28.964H98.4429C97.8669 28.964 97.4229 29.108 97.1109 29.396C96.8109 29.672 96.6609 30.032 96.6609 30.476C96.6609 30.92 96.8109 31.28 97.1109 31.556C97.4229 31.832 97.8669 31.97 98.4429 31.97C98.7909 31.97 99.1089 31.91 99.3969 31.79C99.6969 31.658 99.9429 31.442 100.135 31.142C100.339 30.83 100.453 30.41 100.477 29.882L101.089 30.584C101.029 31.268 100.861 31.844 100.585 32.312C100.321 32.78 99.9489 33.14 99.4689 33.392C99.0009 33.632 98.4249 33.752 97.7409 33.752ZM109.097 33.806C107.753 33.806 106.697 33.524 105.929 32.96C105.173 32.384 104.777 31.592 104.741 30.584H106.991C107.027 30.92 107.213 31.226 107.549 31.502C107.885 31.778 108.413 31.916 109.133 31.916C109.733 31.916 110.207 31.808 110.555 31.592C110.915 31.376 111.095 31.082 111.095 30.71C111.095 30.386 110.957 30.128 110.681 29.936C110.417 29.744 109.961 29.618 109.313 29.558L108.449 29.468C107.357 29.348 106.517 29.036 105.929 28.532C105.341 28.028 105.047 27.356 105.047 26.516C105.047 25.844 105.215 25.28 105.551 24.824C105.887 24.368 106.349 24.026 106.937 23.798C107.537 23.558 108.221 23.438 108.989 23.438C110.189 23.438 111.161 23.702 111.905 24.23C112.649 24.758 113.039 25.532 113.075 26.552H110.825C110.801 26.216 110.633 25.928 110.321 25.688C110.009 25.448 109.559 25.328 108.971 25.328C108.443 25.328 108.035 25.43 107.747 25.634C107.459 25.838 107.315 26.102 107.315 26.426C107.315 26.738 107.429 26.978 107.657 27.146C107.897 27.314 108.281 27.428 108.809 27.488L109.673 27.578C110.825 27.698 111.725 28.016 112.373 28.532C113.033 29.048 113.363 29.744 113.363 30.62C113.363 31.268 113.183 31.832 112.823 32.312C112.475 32.78 111.983 33.146 111.347 33.41C110.711 33.674 109.961 33.806 109.097 33.806ZM119.678 33.626C118.778 33.626 118.034 33.512 117.446 33.284C116.87 33.044 116.438 32.648 116.15 32.096C115.862 31.532 115.718 30.776 115.718 29.828L115.736 20.972H118.076L118.058 29.99C118.058 30.47 118.184 30.842 118.436 31.106C118.7 31.358 119.072 31.484 119.552 31.484H121.082V33.626H119.678ZM114.17 25.562V23.726H121.082V25.562H114.17ZM123.182 33.5V23.726H125.162V27.866H125.108C125.108 26.462 125.408 25.4 126.008 24.68C126.608 23.96 127.49 23.6 128.654 23.6H129.014V25.778H128.33C127.49 25.778 126.836 26.006 126.368 26.462C125.912 26.906 125.684 27.554 125.684 28.406V33.5H123.182ZM134.991 33.842C134.151 33.842 133.413 33.698 132.777 33.41C132.153 33.122 131.631 32.738 131.211 32.258C130.803 31.766 130.491 31.22 130.275 30.62C130.071 30.02 129.969 29.408 129.969 28.784V28.442C129.969 27.794 130.071 27.17 130.275 26.57C130.491 25.958 130.803 25.418 131.211 24.95C131.631 24.47 132.147 24.092 132.759 23.816C133.371 23.528 134.079 23.384 134.883 23.384C135.939 23.384 136.821 23.618 137.529 24.086C138.249 24.542 138.789 25.148 139.149 25.904C139.509 26.648 139.689 27.452 139.689 28.316V29.216H131.031V27.686H138.123L137.349 28.442C137.349 27.818 137.259 27.284 137.079 26.84C136.899 26.396 136.623 26.054 136.251 25.814C135.891 25.574 135.435 25.454 134.883 25.454C134.331 25.454 133.863 25.58 133.479 25.832C133.095 26.084 132.801 26.45 132.597 26.93C132.405 27.398 132.309 27.962 132.309 28.622C132.309 29.234 132.405 29.78 132.597 30.26C132.789 30.728 133.083 31.1 133.479 31.376C133.875 31.64 134.379 31.772 134.991 31.772C135.603 31.772 136.101 31.652 136.485 31.412C136.869 31.16 137.115 30.854 137.223 30.494H139.527C139.383 31.166 139.107 31.754 138.699 32.258C138.291 32.762 137.769 33.152 137.133 33.428C136.509 33.704 135.795 33.842 134.991 33.842ZM141.275 29.54V27.344H148.565V29.54H141.275ZM154.448 33.806C153.104 33.806 152.048 33.524 151.28 32.96C150.524 32.384 150.128 31.592 150.092 30.584H152.342C152.378 30.92 152.564 31.226 152.9 31.502C153.236 31.778 153.764 31.916 154.484 31.916C155.084 31.916 155.558 31.808 155.906 31.592C156.266 31.376 156.446 31.082 156.446 30.71C156.446 30.386 156.308 30.128 156.032 29.936C155.768 29.744 155.312 29.618 154.664 29.558L153.8 29.468C152.708 29.348 151.868 29.036 151.28 28.532C150.692 28.028 150.398 27.356 150.398 26.516C150.398 25.844 150.566 25.28 150.902 24.824C151.238 24.368 151.7 24.026 152.288 23.798C152.888 23.558 153.572 23.438 154.34 23.438C155.54 23.438 156.512 23.702 157.256 24.23C158 24.758 158.39 25.532 158.426 26.552H156.176C156.152 26.216 155.984 25.928 155.672 25.688C155.36 25.448 154.91 25.328 154.322 25.328C153.794 25.328 153.386 25.43 153.098 25.634C152.81 25.838 152.666 26.102 152.666 26.426C152.666 26.738 152.78 26.978 153.008 27.146C153.248 27.314 153.632 27.428 154.16 27.488L155.024 27.578C156.176 27.698 157.076 28.016 157.724 28.532C158.384 29.048 158.714 29.744 158.714 30.62C158.714 31.268 158.534 31.832 158.174 32.312C157.826 32.78 157.334 33.146 156.698 33.41C156.062 33.674 155.312 33.806 154.448 33.806ZM165.155 33.842C164.315 33.842 163.577 33.698 162.941 33.41C162.317 33.122 161.795 32.738 161.375 32.258C160.967 31.766 160.655 31.22 160.439 30.62C160.235 30.02 160.133 29.408 160.133 28.784V28.442C160.133 27.794 160.235 27.17 160.439 26.57C160.655 25.958 160.967 25.418 161.375 24.95C161.795 24.47 162.311 24.092 162.923 23.816C163.535 23.528 164.243 23.384 165.047 23.384C166.103 23.384 166.985 23.618 167.693 24.086C168.413 24.542 168.953 25.148 169.313 25.904C169.673 26.648 169.853 27.452 169.853 28.316V29.216H161.195V27.686H168.287L167.513 28.442C167.513 27.818 167.423 27.284 167.243 26.84C167.063 26.396 166.787 26.054 166.415 25.814C166.055 25.574 165.599 25.454 165.047 25.454C164.495 25.454 164.027 25.58 163.643 25.832C163.259 26.084 162.965 26.45 162.761 26.93C162.569 27.398 162.473 27.962 162.473 28.622C162.473 29.234 162.569 29.78 162.761 30.26C162.953 30.728 163.247 31.1 163.643 31.376C164.039 31.64 164.543 31.772 165.155 31.772C165.767 31.772 166.265 31.652 166.649 31.412C167.033 31.16 167.279 30.854 167.387 30.494H169.691C169.547 31.166 169.271 31.754 168.863 32.258C168.455 32.762 167.933 33.152 167.297 33.428C166.673 33.704 165.959 33.842 165.155 33.842Z" fill="#6EC34B"/>
</svg>
