<svg width="24" height="25" viewBox="0 0 24 25" fill="none" xmlns="http://www.w3.org/2000/svg">
<g clip-path="url(#clip0_484_1485)">
<path d="M23.7483 12.5006C23.7483 11.4949 23.6666 10.761 23.4899 10H12V14.5391H18.7443C18.6084 15.6672 17.8741 17.3659 16.2424 18.5075L16.2195 18.6594L19.8524 21.4723L20.1041 21.4974C22.4157 19.3637 23.7483 16.2243 23.7483 12.5006Z" fill="#4285F4"/>
<path d="M12.239 24.4626C15.5432 24.4626 18.3171 23.3753 20.3432 21.4999L16.4815 18.51C15.4481 19.2303 14.0611 19.7331 12.239 19.7331C9.00285 19.7331 6.25616 17.5995 5.27704 14.6504L5.13353 14.6626L1.35598 17.5845L1.30658 17.7218C3.319 21.7173 7.45266 24.4626 12.239 24.4626Z" fill="#34A853"/>
<path d="M5.27705 14.6504C5.0187 13.8894 4.86919 13.0739 4.86919 12.2313C4.86919 11.3887 5.0187 10.5733 5.26346 9.81222L5.25662 9.65014L1.43173 6.68127L1.30659 6.74077C0.477171 8.39881 0.00125122 10.2607 0.00125122 12.2313C0.00125122 14.2019 0.477171 16.0637 1.30659 17.7218L5.27705 14.6504Z" fill="#FBBC05"/>
<path d="M12.239 4.7294C14.537 4.7294 16.0871 5.72149 16.971 6.55056L20.4247 3.18014C18.3036 1.20954 15.5432 0 12.239 0C7.45266 0 3.319 2.74523 1.30658 6.74075L5.26345 9.81221C6.25616 6.86311 9.00285 4.7294 12.239 4.7294Z" fill="#EB4335"/>
</g>
<defs>
<clipPath id="clip0_484_1485">
<rect width="24" height="24.5469" fill="white"/>
</clipPath>
</defs>
</svg>
