<svg width="134" height="140" viewBox="0 0 134 140" fill="none" xmlns="http://www.w3.org/2000/svg">
<path d="M42.3862 117.856V136.999" stroke="#FF9524" stroke-width="5" stroke-linecap="round" stroke-linejoin="round"/>
<path d="M12.8462 3H71.9231C74.5344 3 77.0388 4.00842 78.8854 5.80341C80.7319 7.5984 81.7692 10.0329 81.7692 12.5714V135.804C81.7692 136.121 81.6396 136.425 81.4087 136.65C81.1779 136.874 80.8649 137 80.5385 137H3V12.5714C3 10.0329 4.03736 7.5984 5.88387 5.80341C7.73038 4.00842 10.2348 3 12.8462 3Z" stroke="#FF9524" stroke-width="5" stroke-linecap="round" stroke-linejoin="round"/>
<path d="M86.6924 50.8564H121.154C123.765 50.8564 126.27 51.8649 128.116 53.6599C129.963 55.4548 131 57.8894 131 60.4279V136.999H81.7693V55.6422C81.7693 54.3729 82.288 53.1556 83.2112 52.2581C84.1345 51.3607 85.3867 50.8564 86.6924 50.8564Z" stroke="#FF9524" stroke-width="5" stroke-linecap="round" stroke-linejoin="round"/>
<rect x="104.071" y="119.634" width="8.14286" height="7.93333" fill="#FF9524" stroke="#FF9524"/>
<rect x="85.7856" y="119.634" width="8.14286" height="7.93333" fill="#FF9524" stroke="#FF9524"/>
<rect x="104.071" y="66.0332" width="8.14286" height="7.93333" fill="#FF9524" stroke="#FF9524"/>
<rect x="85.7856" y="66.0332" width="8.14286" height="7.93333" fill="#FF9524" stroke="#FF9524"/>
<rect x="62.9292" y="92.833" width="8.14286" height="7.93333" fill="#FF9524" stroke="#FF9524"/>
<rect x="62.9292" y="119.634" width="8.14286" height="7.93333" fill="#FF9524" stroke="#FF9524"/>
<rect x="62.9292" y="39.2334" width="8.14286" height="7.93333" fill="#FF9524" stroke="#FF9524"/>
<rect x="62.9292" y="66.0332" width="8.14286" height="7.93333" fill="#FF9524" stroke="#FF9524"/>
<rect x="37.7856" y="66.0332" width="8.14286" height="7.93333" fill="#FF9524" stroke="#FF9524"/>
<rect x="37.7856" y="92.833" width="8.14286" height="7.93333" fill="#FF9524" stroke="#FF9524"/>
<rect x="37.7856" y="12.4336" width="8.14286" height="7.93333" fill="#FF9524" stroke="#FF9524"/>
<rect x="62.9292" y="12.4336" width="8.14286" height="7.93333" fill="#FF9524" stroke="#FF9524"/>
<rect x="37.7856" y="39.2334" width="8.14286" height="7.93333" fill="#FF9524" stroke="#FF9524"/>
<rect x="14.9292" y="66.0332" width="8.14286" height="7.93333" fill="#FF9524" stroke="#FF9524"/>
<rect x="14.9292" y="92.833" width="8.14286" height="7.93333" fill="#FF9524" stroke="#FF9524"/>
<rect x="14.9292" y="119.634" width="8.14286" height="7.93333" fill="#FF9524" stroke="#FF9524"/>
<rect x="14.9292" y="12.4336" width="8.14286" height="7.93333" fill="#FF9524" stroke="#FF9524"/>
<path d="M14.9292 39.2334H23.0721V47.1667H14.9292V39.2334Z" fill="#FF9524" stroke="#FF9524"/>
<rect x="104.071" y="92.833" width="8.14286" height="7.93333" fill="#FF9524" stroke="#FF9524"/>
<rect x="85.7856" y="92.833" width="8.14286" height="7.93333" fill="#FF9524" stroke="#FF9524"/>
</svg>
