<svg width="148" height="154" viewBox="0 0 148 154" fill="none" xmlns="http://www.w3.org/2000/svg">
<rect x="1" y="1" width="146" height="152" rx="73" stroke="#00293D" stroke-width="2"/>
<path d="M57.847 109.143V122" stroke="#FF9524" stroke-width="4.07691" stroke-linecap="round" stroke-linejoin="round"/>
<path d="M38.4615 32H77.2308C78.9445 32 80.588 32.6773 81.7998 33.8829C83.0115 35.0885 83.6923 36.7236 83.6923 38.4286V121.196C83.6923 121.41 83.6072 121.614 83.4557 121.765C83.3043 121.915 83.0988 122 82.8846 122H32V38.4286C32 36.7236 32.6808 35.0885 33.8925 33.8829C35.1043 32.6773 36.7478 32 38.4615 32Z" stroke="#FF9524" stroke-width="4.08" stroke-linecap="round" stroke-linejoin="round"/>
<path d="M86.9232 64.1428H109.539C111.252 64.1428 112.896 64.8201 114.108 66.0257C115.319 67.2313 116 68.8664 116 70.5714V122H83.6924V67.3571C83.6924 66.5046 84.0328 65.6871 84.6387 65.0843C85.2445 64.4815 86.0663 64.1428 86.9232 64.1428Z" stroke="#FF9524" stroke-width="4.07691" stroke-linecap="round" stroke-linejoin="round"/>
<rect x="98.4995" y="110.5" width="5" height="5" fill="#FF9524" stroke="#FF9524"/>
<rect x="86.5001" y="110.5" width="5" height="5" fill="#FF9524" stroke="#FF9524"/>
<rect x="98.4995" y="74.5" width="5" height="5" fill="#FF9524" stroke="#FF9524"/>
<rect x="86.5001" y="74.5" width="5" height="5" fill="#FF9524" stroke="#FF9524"/>
<rect x="71.5005" y="92.4999" width="5" height="5" fill="#FF9524" stroke="#FF9524"/>
<rect x="71.5005" y="110.5" width="5" height="5" fill="#FF9524" stroke="#FF9524"/>
<rect x="71.5005" y="56.5" width="5" height="5" fill="#FF9524" stroke="#FF9524"/>
<rect x="71.5005" y="74.5" width="5" height="5" fill="#FF9524" stroke="#FF9524"/>
<rect x="55.0001" y="74.5" width="5" height="5" fill="#FF9524" stroke="#FF9524"/>
<rect x="55.0001" y="92.4999" width="5" height="5" fill="#FF9524" stroke="#FF9524"/>
<rect x="55.0001" y="38.4999" width="5" height="5" fill="#FF9524" stroke="#FF9524"/>
<rect x="71.5005" y="38.4999" width="5" height="5" fill="#FF9524" stroke="#FF9524"/>
<rect x="55.0001" y="56.5" width="5" height="5" fill="#FF9524" stroke="#FF9524"/>
<rect x="40.0005" y="74.5" width="5" height="5" fill="#FF9524" stroke="#FF9524"/>
<rect x="40.0005" y="92.4999" width="5" height="5" fill="#FF9524" stroke="#FF9524"/>
<rect x="40.0005" y="110.5" width="5" height="5" fill="#FF9524" stroke="#FF9524"/>
<rect x="40.0005" y="38.4999" width="5" height="5" fill="#FF9524" stroke="#FF9524"/>
<path d="M40.0005 56.5H45.0005V61.5H40.0005V56.5Z" fill="#FF9524" stroke="#FF9524"/>
<rect x="98.4995" y="92.4999" width="5" height="5" fill="#FF9524" stroke="#FF9524"/>
<rect x="86.5001" y="92.4999" width="5" height="5" fill="#FF9524" stroke="#FF9524"/>
</svg>
