<svg width="132" height="48" viewBox="0 0 132 48" fill="none" xmlns="http://www.w3.org/2000/svg">
<path d="M12 10.6556V13.3222H37.3333V18.601L34.375 27.9889H11.161L7.82767 3.98566H0V6.65232H5.50567L8.839 30.6556H36.3307L40 19.0112V10.6556H12Z" fill="#6EC34B"/>
<path d="M13.4154 33.3477C12.0014 33.3493 10.6458 33.9117 9.64591 34.9115C8.64606 35.9114 8.08364 37.267 8.08203 38.681C8.08203 40.0955 8.64393 41.452 9.64413 42.4522C10.6443 43.4524 12.0009 44.0143 13.4154 44.0143C14.8299 44.0143 16.1864 43.4524 17.1866 42.4522C18.1868 41.452 18.7487 40.0955 18.7487 38.681C18.7471 37.267 18.1847 35.9114 17.1848 34.9115C16.185 33.9117 14.8294 33.3492 13.4154 33.3477ZM13.4154 41.3477C12.8879 41.3477 12.3724 41.1913 11.9338 40.8982C11.4953 40.6052 11.1535 40.1887 10.9517 39.7015C10.7499 39.2142 10.697 38.678 10.7999 38.1607C10.9028 37.6435 11.1568 37.1683 11.5297 36.7954C11.9027 36.4224 12.3778 36.1685 12.8951 36.0656C13.4124 35.9627 13.9486 36.0155 14.4359 36.2173C14.9231 36.4191 15.3396 36.7609 15.6326 37.1995C15.9256 37.638 16.082 38.1536 16.082 38.681C16.0812 39.388 15.8 40.0658 15.3001 40.5657C14.8001 41.0656 14.1224 41.3468 13.4154 41.3477Z" fill="#6EC34B"/>
<path d="M32.082 33.3477C30.668 33.3493 29.3124 33.9117 28.3125 34.9115C27.3127 35.9114 26.7503 37.267 26.7487 38.681C26.7487 40.0955 27.3106 41.452 28.3108 42.4522C29.3109 43.4524 30.6675 44.0143 32.082 44.0143C33.4965 44.0143 34.853 43.4524 35.8532 42.4522C36.8534 41.452 37.4153 40.0955 37.4153 38.681C37.4137 37.267 36.8513 35.9114 35.8515 34.9115C34.8516 33.9117 33.496 33.3492 32.082 33.3477ZM32.082 41.3477C31.5546 41.3477 31.039 41.1913 30.6005 40.8982C30.1619 40.6052 29.8201 40.1887 29.6183 39.7015C29.4165 39.2142 29.3637 38.678 29.4666 38.1607C29.5695 37.6435 29.8234 37.1683 30.1964 36.7954C30.5693 36.4224 31.0445 36.1685 31.5617 36.0656C32.079 35.9627 32.6152 36.0155 33.1025 36.2173C33.5897 36.4191 34.0062 36.7609 34.2992 37.1995C34.5923 37.638 34.7487 38.1536 34.7487 38.681C34.7478 39.388 34.4666 40.0658 33.9667 40.5657C33.4668 41.0656 32.789 41.3468 32.082 41.3477Z" fill="#6EC34B"/>
<path d="M20.1598 24.5462C20.0343 24.5295 19.9242 24.4814 19.8295 24.4021C19.7351 24.3225 19.6701 24.2261 19.6345 24.113C19.598 24.0061 19.5888 23.8981 19.6071 23.7888C19.6251 23.6798 19.6687 23.582 19.738 23.4956L20.1299 23.0122L21.7488 23.2273L21.5434 24.73L20.1598 24.5462Z" fill="#6EC34B"/>
<path d="M20.1598 24.5462C20.0343 24.5295 19.9242 24.4814 19.8295 24.4021C19.7351 24.3225 19.6701 24.2261 19.6345 24.113C19.598 24.0061 19.5888 23.8981 19.6071 23.7888C19.6251 23.6798 19.6687 23.582 19.738 23.4956L20.1299 23.0122L21.7488 23.2273L21.5434 24.73L20.1598 24.5462Z" fill="#6EC34B"/>
<path d="M23.6118 17.2648L22.2238 17.3259L23.1766 18.6914L22.5356 19.1241L24.6639 19.494L25.0657 17.3989L24.4373 17.8268L24.2674 17.5857C24.1928 17.4766 24.0968 17.3945 23.9795 17.3393C23.8625 17.284 23.7399 17.2592 23.6118 17.2648Z" fill="#6EC34B"/>
<path d="M20.9459 17.8824C21.0003 17.7681 21.0802 17.6774 21.1855 17.6102C21.291 17.5434 21.4036 17.5093 21.5233 17.5078C21.6372 17.5037 21.7439 17.526 21.8434 17.5745C21.9428 17.6228 22.0234 17.6921 22.0853 17.7826L22.4302 18.2927L21.7277 19.7673L20.3454 19.1426L20.9459 17.8824Z" fill="#6EC34B"/>
<path d="M20.9459 17.8824C21.0003 17.7681 21.0802 17.6774 21.1855 17.6102C21.291 17.5434 21.4036 17.5093 21.5233 17.5078C21.6372 17.5037 21.7439 17.526 21.8434 17.5745C21.9428 17.6228 22.0234 17.6921 22.0853 17.7826L22.4302 18.2927L21.7277 19.7673L20.3454 19.1426L20.9459 17.8824Z" fill="#6EC34B"/>
<path d="M25.3178 22.4046C24.8557 23.1867 24.7434 23.3658 24.1024 23.5003C22.2463 24.043 22.0313 24.4129 22.1979 26.778C22.2143 27.0116 22.2201 27.1467 22.3654 27.1754C24.4096 27.6218 22.4239 25.0099 24.0919 24.8555C25.7599 24.7011 26.6055 22.4046 26.6055 22.4046L25.3178 22.4046Z" fill="#6EC34B"/>
<path d="M26.464 21.0368C26.5184 21.1511 26.5378 21.2688 26.5221 21.3897C26.506 21.5105 26.4597 21.6153 26.383 21.7041C26.3121 21.7903 26.2253 21.8541 26.1224 21.8955C26.0199 21.937 25.9129 21.951 25.8015 21.9375L25.1763 21.8587L24.4738 20.3841L25.8637 19.7766L26.1638 20.4067L26.464 21.0368Z" fill="#6EC34B"/>
<path d="M26.464 21.0368C26.5184 21.1511 26.5378 21.2688 26.5221 21.3897C26.506 21.5105 26.4597 21.6153 26.383 21.7041C26.3121 21.7903 26.2253 21.8541 26.1224 21.8955C26.0199 21.937 25.9129 21.951 25.8015 21.9375L25.1763 21.8587L24.4738 20.3841L25.8637 19.7766L26.1638 20.4067L26.464 21.0368Z" fill="#6EC34B"/>
<path d="M18.9345 22.0431L19.3794 23.3454L20.4311 22.0316L21.0266 22.5124L20.7914 20.3774L18.6595 20.6201L19.2469 21.0902L19.0616 21.3237C18.9772 21.4273 18.9247 21.5431 18.9041 21.6711C18.8833 21.7989 18.8935 21.9229 18.9345 22.0431Z" fill="#6EC34B"/>
<path d="M50.7672 18.5C50.3712 18.5 50.0652 18.398 49.8492 18.194C49.6452 17.978 49.5432 17.672 49.5432 17.276V7.034C49.5432 6.638 49.6452 6.338 49.8492 6.134C50.0652 5.918 50.3712 5.81 50.7672 5.81H57.1932C57.4932 5.81 57.7212 5.888 57.8772 6.044C58.0452 6.2 58.1292 6.422 58.1292 6.71C58.1292 7.01 58.0452 7.244 57.8772 7.412C57.7212 7.568 57.4932 7.646 57.1932 7.646H51.7572V11.138H56.7972C57.1092 11.138 57.3432 11.216 57.4992 11.372C57.6552 11.528 57.7332 11.756 57.7332 12.056C57.7332 12.356 57.6552 12.584 57.4992 12.74C57.3432 12.896 57.1092 12.974 56.7972 12.974H51.7572V16.664H57.1932C57.4932 16.664 57.7212 16.742 57.8772 16.898C58.0452 17.054 58.1292 17.282 58.1292 17.582C58.1292 17.882 58.0452 18.11 57.8772 18.266C57.7212 18.422 57.4932 18.5 57.1932 18.5H50.7672ZM66.1699 18.68C64.8499 18.68 63.7159 18.416 62.7679 17.888C61.8319 17.348 61.1119 16.592 60.6079 15.62C60.1039 14.636 59.8519 13.478 59.8519 12.146C59.8519 11.15 59.9959 10.256 60.2839 9.464C60.5719 8.66 60.9859 7.976 61.5259 7.412C62.0659 6.836 62.7259 6.398 63.5059 6.098C64.2979 5.786 65.1859 5.63 66.1699 5.63C66.8299 5.63 67.4779 5.714 68.1139 5.882C68.7499 6.05 69.3079 6.29 69.7879 6.602C70.0399 6.758 70.2079 6.95 70.2919 7.178C70.3759 7.394 70.3939 7.61 70.3459 7.826C70.2979 8.03 70.1959 8.204 70.0399 8.348C69.8959 8.492 69.7099 8.576 69.4819 8.6C69.2659 8.612 69.0259 8.534 68.7619 8.366C68.3899 8.126 67.9879 7.952 67.5559 7.844C67.1239 7.736 66.6859 7.682 66.2419 7.682C65.3899 7.682 64.6699 7.856 64.0819 8.204C63.4939 8.552 63.0499 9.056 62.7499 9.716C62.4499 10.376 62.2999 11.186 62.2999 12.146C62.2999 13.094 62.4499 13.904 62.7499 14.576C63.0499 15.248 63.4939 15.758 64.0819 16.106C64.6699 16.454 65.3899 16.628 66.2419 16.628C66.6979 16.628 67.1479 16.574 67.5919 16.466C68.0359 16.346 68.4559 16.166 68.8519 15.926C69.1159 15.77 69.3499 15.704 69.5539 15.728C69.7699 15.74 69.9499 15.812 70.0939 15.944C70.2379 16.076 70.3339 16.244 70.3819 16.448C70.4299 16.64 70.4179 16.844 70.3459 17.06C70.2739 17.264 70.1299 17.444 69.9139 17.6C69.4339 17.948 68.8579 18.218 68.1859 18.41C67.5259 18.59 66.8539 18.68 66.1699 18.68ZM77.784 18.68C76.56 18.68 75.486 18.41 74.562 17.87C73.65 17.33 72.942 16.574 72.438 15.602C71.934 14.618 71.682 13.466 71.682 12.146C71.682 11.15 71.826 10.256 72.114 9.464C72.402 8.66 72.81 7.976 73.338 7.412C73.878 6.836 74.52 6.398 75.264 6.098C76.02 5.786 76.86 5.63 77.784 5.63C79.02 5.63 80.094 5.9 81.006 6.44C81.918 6.968 82.626 7.718 83.13 8.69C83.634 9.662 83.886 10.808 83.886 12.128C83.886 13.124 83.742 14.024 83.454 14.828C83.166 15.632 82.752 16.322 82.212 16.898C81.684 17.474 81.042 17.918 80.286 18.23C79.542 18.53 78.708 18.68 77.784 18.68ZM77.784 16.7C78.564 16.7 79.224 16.52 79.764 16.16C80.316 15.8 80.736 15.278 81.024 14.594C81.324 13.91 81.474 13.094 81.474 12.146C81.474 10.706 81.15 9.59 80.502 8.798C79.866 8.006 78.96 7.61 77.784 7.61C77.016 7.61 76.356 7.79 75.804 8.15C75.252 8.498 74.826 9.014 74.526 9.698C74.238 10.37 74.094 11.186 74.094 12.146C74.094 13.574 74.418 14.69 75.066 15.494C75.714 16.298 76.62 16.7 77.784 16.7Z" fill="#6EC34B"/>
<path d="M54.7769 41.66C53.6035 41.66 52.5955 41.4253 51.7529 40.956C50.9209 40.476 50.2809 39.804 49.8329 38.94C49.3849 38.0653 49.1609 37.036 49.1609 35.852C49.1609 34.9667 49.2889 34.172 49.5449 33.468C49.8009 32.7533 50.1689 32.1453 50.6489 31.644C51.1289 31.132 51.7155 30.7427 52.4089 30.476C53.1129 30.1987 53.9022 30.06 54.7769 30.06C55.3635 30.06 55.9395 30.1347 56.5049 30.284C57.0702 30.4333 57.5662 30.6467 57.9929 30.924C58.2169 31.0627 58.3662 31.2333 58.4409 31.436C58.5155 31.628 58.5315 31.82 58.4889 32.012C58.4462 32.1933 58.3555 32.348 58.2169 32.476C58.0889 32.604 57.9235 32.6787 57.7209 32.7C57.5289 32.7107 57.3155 32.6413 57.0809 32.492C56.7502 32.2787 56.3929 32.124 56.0089 32.028C55.6249 31.932 55.2355 31.884 54.8409 31.884C54.0835 31.884 53.4435 32.0387 52.9209 32.348C52.3982 32.6573 52.0035 33.1053 51.7369 33.692C51.4702 34.2787 51.3369 34.9987 51.3369 35.852C51.3369 36.6947 51.4702 37.4147 51.7369 38.012C52.0035 38.6093 52.3982 39.0627 52.9209 39.372C53.4435 39.6813 54.0835 39.836 54.8409 39.836C55.2462 39.836 55.6462 39.788 56.0409 39.692C56.4355 39.5853 56.8089 39.4253 57.1609 39.212C57.3955 39.0733 57.6035 39.0147 57.7849 39.036C57.9769 39.0467 58.1369 39.1107 58.2649 39.228C58.3929 39.3453 58.4782 39.4947 58.5209 39.676C58.5635 39.8467 58.5529 40.028 58.4889 40.22C58.4249 40.4013 58.2969 40.5613 58.1049 40.7C57.6782 41.0093 57.1662 41.2493 56.5689 41.42C55.9822 41.58 55.3849 41.66 54.7769 41.66ZM65.1005 41.66C64.0125 41.66 63.0578 41.42 62.2365 40.94C61.4258 40.46 60.7965 39.788 60.3485 38.924C59.9005 38.0493 59.6765 37.0253 59.6765 35.852C59.6765 34.9667 59.8045 34.172 60.0605 33.468C60.3165 32.7533 60.6792 32.1453 61.1485 31.644C61.6285 31.132 62.1992 30.7427 62.8605 30.476C63.5325 30.1987 64.2792 30.06 65.1005 30.06C66.1992 30.06 67.1538 30.3 67.9645 30.78C68.7752 31.2493 69.4045 31.916 69.8525 32.78C70.3005 33.644 70.5245 34.6627 70.5245 35.836C70.5245 36.7213 70.3965 37.5213 70.1405 38.236C69.8845 38.9507 69.5165 39.564 69.0365 40.076C68.5672 40.588 67.9965 40.9827 67.3245 41.26C66.6632 41.5267 65.9218 41.66 65.1005 41.66ZM65.1005 39.9C65.7938 39.9 66.3805 39.74 66.8605 39.42C67.3512 39.1 67.7245 38.636 67.9805 38.028C68.2472 37.42 68.3805 36.6947 68.3805 35.852C68.3805 34.572 68.0925 33.58 67.5165 32.876C66.9512 32.172 66.1458 31.82 65.1005 31.82C64.4178 31.82 63.8312 31.98 63.3405 32.3C62.8498 32.6093 62.4712 33.068 62.2045 33.676C61.9485 34.2733 61.8205 34.9987 61.8205 35.852C61.8205 37.1213 62.1085 38.1133 62.6845 38.828C63.2605 39.5427 64.0658 39.9 65.1005 39.9ZM73.567 41.628C73.2577 41.628 73.0177 41.5427 72.847 41.372C72.687 41.2013 72.607 40.956 72.607 40.636V31.116C72.607 30.7853 72.687 30.5347 72.847 30.364C73.0177 30.1827 73.2363 30.092 73.503 30.092C73.7483 30.092 73.9297 30.14 74.047 30.236C74.175 30.3213 74.3243 30.4707 74.495 30.684L80.623 38.636H80.207V31.068C80.207 30.7587 80.287 30.5187 80.447 30.348C80.6177 30.1773 80.8577 30.092 81.167 30.092C81.4763 30.092 81.711 30.1773 81.871 30.348C82.031 30.5187 82.111 30.7587 82.111 31.068V40.668C82.111 40.9667 82.0363 41.2013 81.887 41.372C81.7377 41.5427 81.535 41.628 81.279 41.628C81.0337 41.628 80.8363 41.58 80.687 41.484C80.5483 41.388 80.3937 41.2333 80.223 41.02L74.111 33.068H74.511V40.636C74.511 40.956 74.431 41.2013 74.271 41.372C74.111 41.5427 73.8763 41.628 73.567 41.628ZM88.4638 41.66C87.9944 41.66 87.5251 41.6227 87.0558 41.548C86.5864 41.484 86.1438 41.3827 85.7278 41.244C85.3118 41.0947 84.9384 40.9133 84.6078 40.7C84.4158 40.572 84.2824 40.4173 84.2078 40.236C84.1331 40.0547 84.1064 39.8787 84.1278 39.708C84.1598 39.5267 84.2291 39.372 84.3358 39.244C84.4531 39.1053 84.5971 39.02 84.7678 38.988C84.9384 38.956 85.1251 39.004 85.3278 39.132C85.7971 39.4093 86.2931 39.612 86.8158 39.74C87.3384 39.868 87.8878 39.932 88.4638 39.932C89.3064 39.932 89.9198 39.7933 90.3038 39.516C90.6878 39.228 90.8798 38.86 90.8798 38.412C90.8798 38.0387 90.7411 37.7453 90.4638 37.532C90.1971 37.3187 89.7331 37.1427 89.0718 37.004L87.3118 36.636C86.2984 36.4227 85.5411 36.0653 85.0398 35.564C84.5491 35.052 84.3038 34.38 84.3038 33.548C84.3038 33.0253 84.4104 32.5507 84.6238 32.124C84.8371 31.6973 85.1358 31.3293 85.5198 31.02C85.9144 30.7107 86.3784 30.476 86.9118 30.316C87.4558 30.1453 88.0531 30.06 88.7038 30.06C89.3438 30.06 89.9518 30.14 90.5278 30.3C91.1038 30.46 91.6211 30.6947 92.0798 31.004C92.2504 31.1213 92.3624 31.2653 92.4158 31.436C92.4798 31.6067 92.4958 31.7773 92.4638 31.948C92.4318 32.108 92.3571 32.2467 92.2398 32.364C92.1224 32.4813 91.9731 32.5507 91.7917 32.572C91.6211 32.5933 91.4238 32.54 91.1998 32.412C90.8051 32.188 90.4051 32.028 89.9998 31.932C89.5944 31.836 89.1571 31.788 88.6878 31.788C88.1971 31.788 87.7758 31.8573 87.4238 31.996C87.0718 32.1347 86.7998 32.332 86.6078 32.588C86.4264 32.8333 86.3358 33.1267 86.3358 33.468C86.3358 33.852 86.4638 34.1613 86.7198 34.396C86.9758 34.62 87.4131 34.796 88.0318 34.924L89.7758 35.292C90.8318 35.516 91.6158 35.868 92.1278 36.348C92.6504 36.828 92.9118 37.468 92.9118 38.268C92.9118 38.78 92.8051 39.244 92.5918 39.66C92.3891 40.076 92.0904 40.4333 91.6958 40.732C91.3118 41.0307 90.8478 41.26 90.3038 41.42C89.7598 41.58 89.1464 41.66 88.4638 41.66ZM99.3575 41.66C98.5788 41.66 97.8908 41.5587 97.2935 41.356C96.7068 41.1533 96.2108 40.8547 95.8055 40.46C95.4002 40.0547 95.0962 39.5533 94.8935 38.956C94.6908 38.3587 94.5895 37.6653 94.5895 36.876V31.132C94.5895 30.78 94.6748 30.5187 94.8455 30.348C95.0268 30.1773 95.2828 30.092 95.6135 30.092C95.9442 30.092 96.1948 30.1773 96.3655 30.348C96.5468 30.5187 96.6375 30.78 96.6375 31.132V36.86C96.6375 37.8733 96.8668 38.636 97.3255 39.148C97.7948 39.6493 98.4722 39.9 99.3575 39.9C100.243 39.9 100.915 39.6493 101.374 39.148C101.832 38.636 102.062 37.8733 102.062 36.86V31.132C102.062 30.78 102.147 30.5187 102.318 30.348C102.499 30.1773 102.755 30.092 103.086 30.092C103.406 30.092 103.651 30.1773 103.822 30.348C104.003 30.5187 104.094 30.78 104.094 31.132V36.876C104.094 37.9213 103.912 38.8013 103.55 39.516C103.198 40.2307 102.67 40.7693 101.966 41.132C101.262 41.484 100.392 41.66 99.3575 41.66ZM107.442 41.628C107.143 41.628 106.914 41.5427 106.754 41.372C106.594 41.2013 106.514 40.9667 106.514 40.668V31.052C106.514 30.7427 106.599 30.508 106.77 30.348C106.941 30.1773 107.175 30.092 107.474 30.092C107.741 30.092 107.949 30.1453 108.098 30.252C108.258 30.348 108.402 30.5187 108.53 30.764L112.482 38.076H111.97L115.922 30.764C116.05 30.5187 116.189 30.348 116.338 30.252C116.487 30.1453 116.695 30.092 116.962 30.092C117.261 30.092 117.49 30.1773 117.65 30.348C117.81 30.508 117.89 30.7427 117.89 31.052V40.668C117.89 40.9667 117.81 41.2013 117.65 41.372C117.501 41.5427 117.271 41.628 116.962 41.628C116.663 41.628 116.434 41.5427 116.274 41.372C116.114 41.2013 116.034 40.9667 116.034 40.668V33.26H116.386L113.026 39.388C112.919 39.5693 112.807 39.7027 112.69 39.788C112.573 39.8733 112.413 39.916 112.21 39.916C112.007 39.916 111.842 39.8733 111.714 39.788C111.586 39.692 111.474 39.5587 111.378 39.388L107.986 33.244H108.37V40.668C108.37 40.9667 108.29 41.2013 108.13 41.372C107.981 41.5427 107.751 41.628 107.442 41.628ZM125.429 41.66C124.341 41.66 123.386 41.42 122.565 40.94C121.754 40.46 121.125 39.788 120.677 38.924C120.229 38.0493 120.005 37.0253 120.005 35.852C120.005 34.9667 120.133 34.172 120.389 33.468C120.645 32.7533 121.007 32.1453 121.477 31.644C121.957 31.132 122.527 30.7427 123.189 30.476C123.861 30.1987 124.607 30.06 125.429 30.06C126.527 30.06 127.482 30.3 128.293 30.78C129.103 31.2493 129.733 31.916 130.181 32.78C130.629 33.644 130.853 34.6627 130.853 35.836C130.853 36.7213 130.725 37.5213 130.469 38.236C130.213 38.9507 129.845 39.564 129.365 40.076C128.895 40.588 128.325 40.9827 127.653 41.26C126.991 41.5267 126.25 41.66 125.429 41.66ZM125.429 39.9C126.122 39.9 126.709 39.74 127.189 39.42C127.679 39.1 128.053 38.636 128.309 38.028C128.575 37.42 128.709 36.6947 128.709 35.852C128.709 34.572 128.421 33.58 127.845 32.876C127.279 32.172 126.474 31.82 125.429 31.82C124.746 31.82 124.159 31.98 123.669 32.3C123.178 32.6093 122.799 33.068 122.533 33.676C122.277 34.2733 122.149 34.9987 122.149 35.852C122.149 37.1213 122.437 38.1133 123.013 38.828C123.589 39.5427 124.394 39.9 125.429 39.9Z" fill="#6EC34B"/>
</svg>
