<svg width="394" height="315" viewBox="0 0 394 315" fill="none" xmlns="http://www.w3.org/2000/svg">
<path d="M134.06 278.613H129.81C129.688 277.916 129.465 277.299 129.139 276.761C128.813 276.216 128.408 275.754 127.923 275.375C127.438 274.996 126.885 274.712 126.264 274.522C125.651 274.326 124.988 274.227 124.276 274.227C123.01 274.227 121.889 274.545 120.912 275.182C119.935 275.81 119.17 276.735 118.616 277.954C118.063 279.166 117.787 280.647 117.787 282.397C117.787 284.178 118.063 285.678 118.616 286.897C119.177 288.11 119.942 289.026 120.912 289.647C121.889 290.261 123.007 290.568 124.264 290.568C124.961 290.568 125.613 290.477 126.219 290.295C126.832 290.106 127.382 289.829 127.866 289.466C128.359 289.102 128.772 288.655 129.105 288.125C129.446 287.594 129.681 286.988 129.81 286.307L134.06 286.329C133.901 287.435 133.556 288.473 133.026 289.443C132.503 290.413 131.817 291.269 130.969 292.011C130.12 292.746 129.128 293.322 127.991 293.738C126.855 294.147 125.594 294.352 124.207 294.352C122.162 294.352 120.336 293.879 118.73 292.932C117.124 291.985 115.859 290.617 114.935 288.829C114.01 287.041 113.548 284.897 113.548 282.397C113.548 279.89 114.014 277.746 114.946 275.966C115.878 274.178 117.147 272.81 118.753 271.863C120.359 270.916 122.177 270.443 124.207 270.443C125.503 270.443 126.707 270.625 127.821 270.988C128.935 271.352 129.927 271.886 130.798 272.591C131.67 273.288 132.385 274.144 132.946 275.159C133.514 276.166 133.885 277.318 134.06 278.613ZM158.716 282.397C158.716 284.905 158.246 287.053 157.307 288.841C156.375 290.621 155.102 291.985 153.489 292.932C151.883 293.879 150.061 294.352 148.023 294.352C145.985 294.352 144.159 293.879 142.545 292.932C140.939 291.977 139.667 290.61 138.727 288.829C137.795 287.041 137.33 284.897 137.33 282.397C137.33 279.89 137.795 277.746 138.727 275.966C139.667 274.178 140.939 272.81 142.545 271.863C144.159 270.916 145.985 270.443 148.023 270.443C150.061 270.443 151.883 270.916 153.489 271.863C155.102 272.81 156.375 274.178 157.307 275.966C158.246 277.746 158.716 279.89 158.716 282.397ZM154.477 282.397C154.477 280.632 154.201 279.144 153.648 277.932C153.102 276.712 152.345 275.791 151.375 275.17C150.405 274.541 149.288 274.227 148.023 274.227C146.758 274.227 145.64 274.541 144.67 275.17C143.701 275.791 142.939 276.712 142.386 277.932C141.841 279.144 141.568 280.632 141.568 282.397C141.568 284.163 141.841 285.655 142.386 286.875C142.939 288.087 143.701 289.007 144.67 289.636C145.64 290.257 146.758 290.568 148.023 290.568C149.288 290.568 150.405 290.257 151.375 289.636C152.345 289.007 153.102 288.087 153.648 286.875C154.201 285.655 154.477 284.163 154.477 282.397ZM181.827 270.761V294.034H178.077L167.111 278.182H166.918V294.034H162.702V270.761H166.474L177.429 286.625H177.634V270.761H181.827ZM199.068 277.159C198.962 276.166 198.515 275.394 197.727 274.841C196.947 274.288 195.932 274.011 194.682 274.011C193.803 274.011 193.049 274.144 192.42 274.409C191.792 274.674 191.311 275.034 190.977 275.488C190.644 275.943 190.473 276.462 190.466 277.045C190.466 277.53 190.576 277.951 190.795 278.307C191.023 278.663 191.33 278.966 191.716 279.216C192.102 279.458 192.53 279.663 193 279.829C193.47 279.996 193.943 280.136 194.42 280.25L196.602 280.795C197.481 281 198.326 281.276 199.136 281.625C199.955 281.973 200.686 282.413 201.33 282.943C201.981 283.473 202.496 284.113 202.875 284.863C203.254 285.613 203.443 286.492 203.443 287.5C203.443 288.863 203.095 290.064 202.398 291.102C201.701 292.132 200.693 292.939 199.375 293.522C198.064 294.098 196.477 294.386 194.614 294.386C192.803 294.386 191.231 294.106 189.898 293.545C188.572 292.985 187.534 292.166 186.784 291.091C186.042 290.015 185.64 288.704 185.58 287.159H189.727C189.788 287.969 190.038 288.644 190.477 289.182C190.917 289.719 191.489 290.121 192.193 290.386C192.905 290.651 193.701 290.784 194.58 290.784C195.496 290.784 196.299 290.647 196.989 290.375C197.686 290.094 198.231 289.708 198.625 289.216C199.019 288.716 199.22 288.132 199.227 287.466C199.22 286.86 199.042 286.36 198.693 285.966C198.345 285.564 197.856 285.231 197.227 284.966C196.606 284.693 195.879 284.451 195.045 284.238L192.398 283.557C190.481 283.064 188.966 282.318 187.852 281.318C186.746 280.31 186.193 278.973 186.193 277.307C186.193 275.935 186.564 274.735 187.307 273.704C188.057 272.674 189.076 271.875 190.364 271.307C191.652 270.731 193.11 270.443 194.739 270.443C196.39 270.443 197.837 270.731 199.08 271.307C200.33 271.875 201.311 272.666 202.023 273.682C202.735 274.689 203.102 275.848 203.125 277.159H199.068ZM221.872 270.761H226.088V285.966C226.088 287.632 225.694 289.098 224.906 290.363C224.126 291.629 223.027 292.617 221.611 293.329C220.194 294.034 218.539 294.386 216.645 294.386C214.743 294.386 213.084 294.034 211.668 293.329C210.251 292.617 209.152 291.629 208.372 290.363C207.592 289.098 207.202 287.632 207.202 285.966V270.761H211.418V285.613C211.418 286.583 211.63 287.447 212.054 288.204C212.486 288.962 213.092 289.557 213.872 289.988C214.652 290.413 215.577 290.625 216.645 290.625C217.713 290.625 218.637 290.413 219.418 289.988C220.205 289.557 220.812 288.962 221.236 288.204C221.66 287.447 221.872 286.583 221.872 285.613V270.761ZM230.67 270.761H235.83L242.739 287.625H243.011L249.92 270.761H255.08V294.034H251.034V278.045H250.818L244.386 293.966H241.364L234.932 278.011H234.716V294.034H230.67V270.761ZM280.466 282.397C280.466 284.905 279.996 287.053 279.057 288.841C278.125 290.621 276.852 291.985 275.239 292.932C273.633 293.879 271.811 294.352 269.773 294.352C267.735 294.352 265.909 293.879 264.295 292.932C262.689 291.977 261.417 290.61 260.477 288.829C259.545 287.041 259.08 284.897 259.08 282.397C259.08 279.89 259.545 277.746 260.477 275.966C261.417 274.178 262.689 272.81 264.295 271.863C265.909 270.916 267.735 270.443 269.773 270.443C271.811 270.443 273.633 270.916 275.239 271.863C276.852 272.81 278.125 274.178 279.057 275.966C279.996 277.746 280.466 279.89 280.466 282.397ZM276.227 282.397C276.227 280.632 275.951 279.144 275.398 277.932C274.852 276.712 274.095 275.791 273.125 275.17C272.155 274.541 271.038 274.227 269.773 274.227C268.508 274.227 267.39 274.541 266.42 275.17C265.451 275.791 264.689 276.712 264.136 277.932C263.591 279.144 263.318 280.632 263.318 282.397C263.318 284.163 263.591 285.655 264.136 286.875C264.689 288.087 265.451 289.007 266.42 289.636C267.39 290.257 268.508 290.568 269.773 290.568C271.038 290.568 272.155 290.257 273.125 289.636C274.095 289.007 274.852 288.087 275.398 286.875C275.951 285.655 276.227 284.163 276.227 282.397Z" fill="#6EC34B"/>
<path d="M117.739 258.453V200.271H155.58V209.106H128.278V224.901H153.619V233.737H128.278V249.617H155.807V258.453H117.739ZM216.134 219.901H205.509C205.205 218.159 204.647 216.615 203.832 215.271C203.018 213.907 202.005 212.752 200.793 211.805C199.58 210.858 198.198 210.148 196.645 209.674C195.111 209.182 193.454 208.936 191.673 208.936C188.51 208.936 185.707 209.731 183.264 211.322C180.821 212.894 178.908 215.204 177.526 218.254C176.143 221.284 175.452 224.987 175.452 229.362C175.452 233.812 176.143 237.562 177.526 240.612C178.927 243.642 180.84 245.934 183.264 247.487C185.707 249.021 188.501 249.788 191.645 249.788C193.387 249.788 195.016 249.561 196.531 249.106C198.065 248.632 199.438 247.941 200.651 247.032C201.882 246.123 202.914 245.006 203.747 243.68C204.599 242.354 205.187 240.839 205.509 239.134L216.134 239.191C215.736 241.956 214.874 244.551 213.548 246.975C212.241 249.4 210.527 251.54 208.406 253.396C206.285 255.233 203.804 256.672 200.963 257.714C198.122 258.737 194.969 259.248 191.503 259.248C186.389 259.248 181.825 258.064 177.81 255.697C173.795 253.329 170.632 249.911 168.321 245.441C166.01 240.971 164.855 235.612 164.855 229.362C164.855 223.093 166.02 217.733 168.349 213.282C170.679 208.812 173.851 205.394 177.866 203.026C181.882 200.659 186.427 199.475 191.503 199.475C194.741 199.475 197.753 199.93 200.537 200.839C203.321 201.748 205.802 203.083 207.98 204.845C210.158 206.587 211.948 208.727 213.349 211.265C214.77 213.784 215.698 216.663 216.134 219.901ZM277.774 229.362C277.774 235.631 276.6 241 274.251 245.47C271.922 249.92 268.74 253.329 264.706 255.697C260.691 258.064 256.136 259.248 251.041 259.248C245.946 259.248 241.382 258.064 237.348 255.697C233.333 253.311 230.151 249.892 227.803 245.441C225.473 240.971 224.308 235.612 224.308 229.362C224.308 223.093 225.473 217.733 227.803 213.282C230.151 208.812 233.333 205.394 237.348 203.026C241.382 200.659 245.946 199.475 251.041 199.475C256.136 199.475 260.691 200.659 264.706 203.026C268.74 205.394 271.922 208.812 274.251 213.282C276.6 217.733 277.774 223.093 277.774 229.362ZM267.178 229.362C267.178 224.949 266.486 221.227 265.104 218.197C263.74 215.148 261.846 212.847 259.422 211.293C256.998 209.722 254.204 208.936 251.041 208.936C247.878 208.936 245.085 209.722 242.661 211.293C240.236 212.847 238.333 215.148 236.95 218.197C235.587 221.227 234.905 224.949 234.905 229.362C234.905 233.775 235.587 237.506 236.95 240.555C238.333 243.585 240.236 245.886 242.661 247.458C245.085 249.011 247.878 249.788 251.041 249.788C254.204 249.788 256.998 249.011 259.422 247.458C261.846 245.886 263.74 243.585 265.104 240.555C266.486 237.506 267.178 233.775 267.178 229.362Z" fill="#6EC34B"/>
<path d="M150.729 29.4128V41.1722H262.443V64.4503L249.397 105.849H147.029L132.33 0H97.8114V11.7594H122.09L136.789 117.608H258.021L274.202 66.2591V29.4128H150.729Z" fill="#6EC34B"/>
<path d="M156.97 129.48C150.735 129.487 144.757 131.967 140.348 136.376C135.939 140.785 133.458 146.763 133.451 152.999C133.451 159.236 135.929 165.218 140.34 169.629C144.75 174.04 150.733 176.517 156.97 176.517C163.208 176.517 169.19 174.04 173.6 169.629C178.011 165.218 180.489 159.236 180.489 152.999C180.482 146.763 178.002 140.785 173.593 136.376C169.184 131.967 163.206 129.487 156.97 129.48ZM156.97 164.758C154.644 164.758 152.371 164.068 150.437 162.776C148.503 161.484 146.996 159.647 146.106 157.499C145.216 155.35 144.983 152.986 145.437 150.704C145.89 148.423 147.01 146.328 148.655 144.683C150.3 143.039 152.395 141.919 154.676 141.465C156.957 141.011 159.322 141.244 161.47 142.134C163.619 143.024 165.456 144.532 166.748 146.465C168.04 148.399 168.73 150.673 168.73 152.999C168.726 156.116 167.486 159.105 165.281 161.31C163.077 163.514 160.088 164.754 156.97 164.758Z" fill="#6EC34B"/>
<path d="M239.286 129.48C233.051 129.487 227.073 131.967 222.663 136.376C218.254 140.785 215.774 146.763 215.767 152.999C215.767 159.236 218.245 165.218 222.656 169.629C227.066 174.04 233.048 176.517 239.286 176.517C245.524 176.517 251.506 174.04 255.916 169.629C260.327 165.218 262.805 159.236 262.805 152.999C262.798 146.763 260.318 140.785 255.908 136.376C251.499 131.967 245.521 129.487 239.286 129.48ZM239.286 164.758C236.96 164.758 234.687 164.068 232.753 162.776C230.819 161.484 229.312 159.647 228.422 157.499C227.532 155.35 227.299 152.986 227.752 150.704C228.206 148.423 229.326 146.328 230.971 144.683C232.615 143.039 234.711 141.919 236.992 141.465C239.273 141.011 241.637 141.244 243.786 142.134C245.935 143.024 247.771 144.532 249.064 146.465C250.356 148.399 251.045 150.673 251.045 152.999C251.042 156.116 249.802 159.105 247.597 161.31C245.392 163.514 242.404 164.754 239.286 164.758Z" fill="#6EC34B"/>
<path d="M186.712 84.9773C186.159 84.9037 185.673 84.6919 185.256 84.3418C184.839 83.9908 184.553 83.5659 184.395 83.0671C184.234 82.5959 184.194 82.1194 184.275 81.6376C184.354 81.1567 184.546 80.7258 184.852 80.3447L186.58 78.2129L193.719 79.1615L192.813 85.788L186.712 84.9773Z" fill="#6EC34B"/>
<path d="M186.712 84.9773C186.159 84.9037 185.673 84.6919 185.256 84.3418C184.839 83.9908 184.553 83.5659 184.395 83.0671C184.234 82.5959 184.194 82.1194 184.275 81.6376C184.354 81.1567 184.546 80.7258 184.852 80.3447L186.58 78.2129L193.719 79.1615L192.813 85.788L186.712 84.9773Z" fill="#6EC34B"/>
<path d="M186.712 84.9773C186.159 84.9037 185.673 84.6919 185.256 84.3418C184.839 83.9908 184.553 83.5659 184.395 83.0671C184.234 82.5959 184.194 82.1194 184.275 81.6376C184.354 81.1567 184.546 80.7258 184.852 80.3447L186.58 78.2129L193.719 79.1615L192.813 85.788L186.712 84.9773Z" stroke="#00293D"/>
<path d="M186.712 84.9773C186.159 84.9037 185.673 84.6919 185.256 84.3418C184.839 83.9908 184.553 83.5659 184.395 83.0671C184.234 82.5959 184.194 82.1194 184.275 81.6376C184.354 81.1567 184.546 80.7258 184.852 80.3447L186.58 78.2129L193.719 79.1615L192.813 85.788L186.712 84.9773Z" stroke="#00293D"/>
<path d="M201.934 52.8681L195.814 53.1375L200.016 59.159L197.189 61.0673L206.574 62.6982L208.346 53.4592L205.575 55.3465L204.826 54.2831C204.496 53.8021 204.073 53.4399 203.556 53.1966C203.04 52.9527 202.499 52.8432 201.934 52.8681Z" fill="#6EC34B" stroke="#00293D"/>
<path d="M190.178 55.5916C190.418 55.0875 190.771 54.6874 191.235 54.3913C191.7 54.0967 192.197 53.9462 192.725 53.9396C193.227 53.9216 193.697 54.0197 194.136 54.2339C194.574 54.4466 194.93 54.7525 195.203 55.1515L196.724 57.4009L193.626 63.9033L187.531 61.1489L190.178 55.5916Z" fill="#6EC34B"/>
<path d="M190.178 55.5916C190.418 55.0875 190.771 54.6874 191.235 54.3913C191.7 54.0967 192.197 53.9462 192.725 53.9396C193.227 53.9216 193.697 54.0197 194.136 54.2339C194.574 54.4466 194.93 54.7525 195.203 55.1515L196.724 57.4009L193.626 63.9033L187.531 61.1489L190.178 55.5916Z" fill="#6EC34B"/>
<path d="M190.178 55.5916C190.418 55.0875 190.771 54.6874 191.235 54.3913C191.7 54.0967 192.197 53.9462 192.725 53.9396C193.227 53.9216 193.697 54.0197 194.136 54.2339C194.574 54.4466 194.93 54.7525 195.203 55.1515L196.724 57.4009L193.626 63.9033L187.531 61.1489L190.178 55.5916Z" stroke="#00293D"/>
<path d="M190.178 55.5916C190.418 55.0875 190.771 54.6874 191.235 54.3913C191.7 54.0967 192.197 53.9462 192.725 53.9396C193.227 53.9216 193.697 54.0197 194.136 54.2339C194.574 54.4466 194.93 54.7525 195.203 55.1515L196.724 57.4009L193.626 63.9033L187.531 61.1489L190.178 55.5916Z" stroke="#00293D"/>
<path d="M209.457 75.5334C207.42 78.9825 206.925 79.772 204.098 80.3653C195.913 82.7582 194.965 84.3897 195.699 94.8192C195.772 95.8492 195.797 96.4452 196.438 96.5715C205.452 98.5403 196.696 87.022 204.051 86.3412C211.407 85.6604 215.136 75.5333 215.136 75.5333L209.457 75.5334Z" fill="#6EC34B" stroke="#00293D"/>
<path d="M214.512 69.5018C214.752 70.0059 214.837 70.5246 214.768 71.058C214.697 71.5908 214.493 72.0529 214.155 72.4443C213.842 72.8245 213.459 73.1059 213.005 73.2883C212.553 73.4714 212.082 73.5332 211.591 73.4738L208.833 73.126L205.736 66.6234L211.865 63.9443L213.188 66.7231L214.512 69.5018Z" fill="#6EC34B"/>
<path d="M214.512 69.5018C214.752 70.0059 214.837 70.5246 214.768 71.058C214.697 71.5908 214.493 72.0529 214.155 72.4443C213.842 72.8245 213.459 73.1059 213.005 73.2883C212.553 73.4714 212.082 73.5332 211.591 73.4738L208.833 73.126L205.736 66.6234L211.865 63.9443L213.188 66.7231L214.512 69.5018Z" fill="#6EC34B"/>
<path d="M214.512 69.5018C214.752 70.0059 214.837 70.5246 214.768 71.058C214.697 71.5908 214.493 72.0529 214.155 72.4443C213.842 72.8245 213.459 73.1059 213.005 73.2883C212.553 73.4714 212.082 73.5332 211.591 73.4738L208.833 73.126L205.736 66.6234L211.865 63.9443L213.188 66.7231L214.512 69.5018Z" stroke="#00293D"/>
<path d="M214.512 69.5018C214.752 70.0059 214.837 70.5246 214.768 71.058C214.697 71.5908 214.493 72.0529 214.155 72.4443C213.842 72.8245 213.459 73.1059 213.005 73.2883C212.553 73.4714 212.082 73.5332 211.591 73.4738L208.833 73.126L205.736 66.6234L211.865 63.9443L213.188 66.7231L214.512 69.5018Z" stroke="#00293D"/>
<path d="M181.309 73.9394L183.271 79.6819L187.908 73.8886L190.534 76.0086L189.497 66.5939L180.096 67.664L182.686 69.737L181.869 70.767C181.497 71.2235 181.266 71.7342 181.175 72.299C181.083 72.8626 181.128 73.4094 181.309 73.9394Z" fill="#6EC34B" stroke="#00293D"/>
</svg>
