<svg width="465" height="480" viewBox="0 0 465 480" fill="none" xmlns="http://www.w3.org/2000/svg">
<path d="M142.31 440.044H132.977C132.807 438.837 132.459 437.764 131.933 436.827C131.408 435.875 130.733 435.065 129.909 434.398C129.085 433.73 128.134 433.219 127.054 432.864C125.989 432.509 124.831 432.331 123.581 432.331C121.322 432.331 119.355 432.892 117.679 434.014C116.003 435.122 114.703 436.742 113.78 438.872C112.857 440.989 112.395 443.56 112.395 446.585C112.395 449.696 112.857 452.31 113.78 454.426C114.717 456.543 116.024 458.141 117.7 459.22C119.376 460.3 121.315 460.84 123.517 460.84C124.753 460.84 125.896 460.676 126.947 460.349C128.013 460.023 128.957 459.547 129.781 458.922C130.605 458.283 131.287 457.509 131.827 456.599C132.381 455.69 132.764 454.653 132.977 453.489L142.31 453.531C142.068 455.534 141.464 457.466 140.499 459.327C139.547 461.173 138.261 462.828 136.642 464.291C135.037 465.74 133.119 466.891 130.889 467.743C128.673 468.581 126.166 469 123.368 469C119.476 469 115.996 468.119 112.928 466.358C109.874 464.597 107.459 462.047 105.683 458.709C103.922 455.371 103.041 451.33 103.041 446.585C103.041 441.827 103.936 437.778 105.726 434.44C107.516 431.102 109.945 428.56 113.013 426.813C116.081 425.051 119.533 424.17 123.368 424.17C125.896 424.17 128.24 424.526 130.399 425.236C132.572 425.946 134.497 426.983 136.173 428.347C137.849 429.696 139.213 431.351 140.264 433.311C141.33 435.271 142.011 437.516 142.31 440.044ZM189.025 446.585C189.025 451.344 188.123 455.392 186.319 458.73C184.529 462.068 182.086 464.618 178.989 466.379C175.907 468.126 172.441 469 168.592 469C164.714 469 161.234 468.119 158.151 466.358C155.069 464.597 152.633 462.047 150.843 458.709C149.053 455.371 148.158 451.33 148.158 446.585C148.158 441.827 149.053 437.778 150.843 434.44C152.633 431.102 155.069 428.56 158.151 426.813C161.234 425.051 164.714 424.17 168.592 424.17C172.441 424.17 175.907 425.051 178.989 426.813C182.086 428.56 184.529 431.102 186.319 434.44C188.123 437.778 189.025 441.827 189.025 446.585ZM179.671 446.585C179.671 443.503 179.21 440.903 178.286 438.787C177.377 436.67 176.092 435.065 174.43 433.972C172.768 432.878 170.822 432.331 168.592 432.331C166.362 432.331 164.415 432.878 162.754 433.972C161.092 435.065 159.799 436.67 158.876 438.787C157.967 440.903 157.512 443.503 157.512 446.585C157.512 449.668 157.967 452.267 158.876 454.384C159.799 456.5 161.092 458.105 162.754 459.199C164.415 460.293 166.362 460.84 168.592 460.84C170.822 460.84 172.768 460.293 174.43 459.199C176.092 458.105 177.377 456.5 178.286 454.384C179.21 452.267 179.671 449.668 179.671 446.585ZM232.358 424.767V468.403H224.389L205.404 440.939H205.085V468.403H195.859V424.767H203.956L222.791 452.21H223.174V424.767H232.358ZM263.652 437.317C263.482 435.598 262.75 434.263 261.457 433.311C260.165 432.359 258.411 431.884 256.195 431.884C254.689 431.884 253.418 432.097 252.381 432.523C251.344 432.935 250.548 433.51 249.994 434.249C249.455 434.987 249.185 435.825 249.185 436.763C249.156 437.544 249.32 438.226 249.675 438.808C250.044 439.391 250.548 439.895 251.188 440.321C251.827 440.733 252.565 441.095 253.403 441.408C254.241 441.706 255.136 441.962 256.088 442.175L260.009 443.112C261.912 443.538 263.659 444.107 265.25 444.817C266.841 445.527 268.219 446.401 269.384 447.438C270.548 448.474 271.45 449.696 272.089 451.102C272.743 452.509 273.077 454.121 273.091 455.939C273.077 458.609 272.395 460.925 271.045 462.885C269.71 464.831 267.778 466.344 265.25 467.423C262.736 468.489 259.703 469.021 256.152 469.021C252.629 469.021 249.561 468.482 246.947 467.402C244.348 466.322 242.317 464.724 240.854 462.608C239.405 460.477 238.645 457.842 238.574 454.703H247.501C247.601 456.166 248.02 457.388 248.759 458.368C249.511 459.334 250.513 460.065 251.763 460.563C253.027 461.045 254.455 461.287 256.045 461.287C257.608 461.287 258.964 461.06 260.115 460.605C261.28 460.151 262.182 459.518 262.821 458.709C263.46 457.899 263.78 456.969 263.78 455.918C263.78 454.938 263.489 454.114 262.906 453.446C262.338 452.778 261.5 452.21 260.392 451.742C259.298 451.273 257.956 450.847 256.365 450.463L251.614 449.27C247.935 448.375 245.03 446.976 242.899 445.072C240.768 443.169 239.71 440.605 239.724 437.381C239.71 434.739 240.413 432.43 241.834 430.456C243.268 428.482 245.236 426.94 247.736 425.832C250.236 424.724 253.077 424.17 256.259 424.17C259.497 424.17 262.324 424.724 264.739 425.832C267.168 426.94 269.057 428.482 270.406 430.456C271.756 432.43 272.452 434.717 272.494 437.317H263.652ZM306.25 424.767H315.475V453.105C315.475 456.287 314.716 459.071 313.196 461.457C311.69 463.844 309.581 465.705 306.868 467.04C304.154 468.361 300.994 469.021 297.386 469.021C293.764 469.021 290.596 468.361 287.883 467.04C285.17 465.705 283.061 463.844 281.555 461.457C280.049 459.071 279.297 456.287 279.297 453.105V424.767H288.522V452.317C288.522 453.979 288.885 455.456 289.609 456.749C290.348 458.041 291.385 459.057 292.72 459.795C294.055 460.534 295.61 460.903 297.386 460.903C299.176 460.903 300.731 460.534 302.052 459.795C303.387 459.057 304.417 458.041 305.142 456.749C305.88 455.456 306.25 453.979 306.25 452.317V424.767ZM323.066 424.767H334.444L346.461 454.085H346.972L358.989 424.767H370.367V468.403H361.418V440.001H361.056L349.763 468.19H343.67L332.377 439.895H332.015V468.403H323.066V424.767ZM418.068 446.585C418.068 451.344 417.166 455.392 415.362 458.73C413.572 462.068 411.129 464.618 408.032 466.379C404.95 468.126 401.484 469 397.635 469C393.757 469 390.277 468.119 387.194 466.358C384.112 464.597 381.676 462.047 379.886 458.709C378.096 455.371 377.201 451.33 377.201 446.585C377.201 441.827 378.096 437.778 379.886 434.44C381.676 431.102 384.112 428.56 387.194 426.813C390.277 425.051 393.757 424.17 397.635 424.17C401.484 424.17 404.95 425.051 408.032 426.813C411.129 428.56 413.572 431.102 415.362 434.44C417.166 437.778 418.068 441.827 418.068 446.585ZM408.714 446.585C408.714 443.503 408.252 440.903 407.329 438.787C406.42 436.67 405.135 435.065 403.473 433.972C401.811 432.878 399.865 432.331 397.635 432.331C395.404 432.331 393.458 432.878 391.797 433.972C390.135 435.065 388.842 436.67 387.919 438.787C387.01 440.903 386.555 443.503 386.555 446.585C386.555 449.668 387.01 452.267 387.919 454.384C388.842 456.5 390.135 458.105 391.797 459.199C393.458 460.293 395.404 460.84 397.635 460.84C399.865 460.84 401.811 460.293 403.473 459.199C405.135 458.105 406.42 456.5 407.329 454.384C408.252 452.267 408.714 449.668 408.714 446.585Z" fill="#6EC34B"/>
<path d="M108.616 412.469V299.014H185.065V318.791H132.603V345.825H181.132V365.602H132.603V392.692H185.286V412.469H108.616ZM304.239 338.734H279.975C279.532 335.595 278.627 332.807 277.26 330.369C275.894 327.895 274.14 325.79 271.998 324.054C269.856 322.318 267.381 320.988 264.574 320.065C261.805 319.142 258.795 318.68 255.545 318.68C249.672 318.68 244.557 320.139 240.199 323.057C235.841 325.937 232.462 330.147 230.062 335.687C227.661 341.19 226.461 347.875 226.461 355.741C226.461 363.829 227.661 370.625 230.062 376.128C232.499 381.63 235.897 385.785 240.255 388.592C244.613 391.399 249.654 392.802 255.378 392.802C258.591 392.802 261.564 392.378 264.297 391.528C267.067 390.679 269.523 389.442 271.665 387.817C273.807 386.155 275.58 384.142 276.983 381.778C278.424 379.415 279.421 376.719 279.975 373.69L304.239 373.801C303.611 379.008 302.042 384.031 299.53 388.869C297.056 393.67 293.714 397.973 289.503 401.777C285.33 405.544 280.344 408.535 274.546 410.751C268.785 412.93 262.266 414.02 254.991 414.02C244.871 414.02 235.823 411.73 227.846 407.15C219.905 402.571 213.627 395.942 209.01 387.263C204.431 378.584 202.141 368.076 202.141 355.741C202.141 343.369 204.468 332.844 209.121 324.165C213.775 315.486 220.09 308.875 228.067 304.332C236.045 299.753 245.019 297.463 254.991 297.463C261.564 297.463 267.658 298.386 273.272 300.233C278.922 302.079 283.927 304.775 288.285 308.321C292.643 311.829 296.188 316.132 298.921 321.228C301.691 326.325 303.464 332.16 304.239 338.734ZM425.699 355.741C425.699 368.113 423.354 378.639 418.663 387.318C414.01 395.997 407.657 402.626 399.606 407.206C391.592 411.748 382.581 414.02 372.572 414.02C362.49 414.02 353.442 411.73 345.427 407.15C337.413 402.571 331.079 395.942 326.426 387.263C321.773 378.584 319.446 368.076 319.446 355.741C319.446 343.369 321.773 332.844 326.426 324.165C331.079 315.486 337.413 308.875 345.427 304.332C353.442 299.753 362.49 297.463 372.572 297.463C382.581 297.463 391.592 299.753 399.606 304.332C407.657 308.875 414.01 315.486 418.663 324.165C423.354 332.844 425.699 343.369 425.699 355.741ZM401.379 355.741C401.379 347.727 400.179 340.969 397.778 335.466C395.415 329.963 392.072 325.79 387.751 322.946C383.43 320.102 378.371 318.68 372.572 318.68C366.774 318.68 361.714 320.102 357.393 322.946C353.072 325.79 349.711 329.963 347.311 335.466C344.947 340.969 343.765 347.727 343.765 355.741C343.765 363.755 344.947 370.514 347.311 376.017C349.711 381.52 353.072 385.693 357.393 388.537C361.714 391.38 366.774 392.802 372.572 392.802C378.371 392.802 383.43 391.38 387.751 388.537C392.072 385.693 395.415 381.52 397.778 376.017C400.179 370.514 401.379 363.755 401.379 355.741Z" fill="#6EC34B"/>
<path d="M139.5 67.6251V94.662H434V148.182L399.609 243.365H129.747L90.9966 0H0V27.0369H64.0034L102.753 270.402H422.344L465 152.341V67.6251H139.5Z" fill="#6EC34B"/>
</svg>
