<svg width="129" height="70" viewBox="0 0 129 70" fill="none" xmlns="http://www.w3.org/2000/svg">
<path d="M27 48C24.6139 48.0027 22.3263 48.9518 20.639 50.639C18.9518 52.3263 18.0027 54.6139 18 57C18 59.3869 18.9482 61.6761 20.636 63.364C22.3239 65.0518 24.6131 66 27 66C29.3869 66 31.6761 65.0518 33.364 63.364C35.0518 61.6761 36 59.3869 36 57C35.9973 54.6139 35.0483 52.3262 33.361 50.639C31.6738 48.9518 29.3861 48.0027 27 48ZM27 61.5C26.11 61.5 25.24 61.2361 24.4999 60.7416C23.7599 60.2471 23.1831 59.5443 22.8425 58.7221C22.5019 57.8998 22.4128 56.995 22.5865 56.1221C22.7601 55.2492 23.1887 54.4474 23.818 53.818C24.4474 53.1887 25.2492 52.7601 26.1221 52.5865C26.995 52.4128 27.8998 52.5019 28.7221 52.8425C29.5443 53.1831 30.2471 53.7599 30.7416 54.4999C31.2361 55.24 31.5 56.11 31.5 57C31.4986 58.193 31.024 59.3368 30.1804 60.1804C29.3368 61.024 28.193 61.4986 27 61.5Z" fill="#6EC34B"/>
<path d="M57 48C54.6139 48.0027 52.3263 48.9518 50.639 50.639C48.9518 52.3263 48.0027 54.6139 48 57C48 59.3869 48.9482 61.6761 50.636 63.364C52.3239 65.0518 54.6131 66 57 66C59.3869 66 61.6761 65.0518 63.364 63.364C65.0518 61.6761 66 59.3869 66 57C65.9973 54.6139 65.0482 52.3262 63.361 50.639C61.6738 48.9518 59.3861 48.0027 57 48ZM57 61.5C56.11 61.5 55.24 61.2361 54.4999 60.7416C53.7599 60.2471 53.1831 59.5443 52.8425 58.7221C52.5019 57.8998 52.4128 56.995 52.5865 56.1221C52.7601 55.2492 53.1887 54.4474 53.818 53.818C54.4474 53.1887 55.2492 52.7601 56.1221 52.5865C56.995 52.4128 57.8998 52.5019 58.7221 52.8425C59.5443 53.1831 60.2471 53.7599 60.7416 54.4999C61.2361 55.24 61.5 56.11 61.5 57C61.4986 58.193 61.024 59.3368 60.1804 60.1804C59.3368 61.024 58.193 61.4986 57 61.5Z" fill="#6EC34B"/>
<path d="M21.9988 11.2541V15.7536H68.4408V24.6604L63.0174 40.5005H20.4607L14.3499 0H0V4.49945H10.0932L16.204 45H66.6026L73.3294 25.3524V11.2541H21.9988Z" fill="#6EC34B"/>
<path d="M86.8135 31.6378C86.7567 31.0649 86.5129 30.6198 86.082 30.3026C85.6511 29.9853 85.0664 29.8267 84.3277 29.8267C83.8258 29.8267 83.4021 29.8977 83.0564 30.0398C82.7108 30.1771 82.4456 30.3688 82.261 30.6151C82.081 30.8613 81.9911 31.1406 81.9911 31.4531C81.9816 31.7135 82.0361 31.9408 82.1544 32.1349C82.2775 32.3291 82.4456 32.4972 82.6587 32.6392C82.8718 32.7765 83.118 32.8973 83.3973 33.0014C83.6767 33.1009 83.975 33.1861 84.2922 33.2571L85.599 33.5696C86.2335 33.7116 86.8159 33.901 87.3462 34.1378C87.8765 34.3745 88.3358 34.6657 88.724 35.0114C89.1123 35.357 89.413 35.7642 89.626 36.233C89.8438 36.7017 89.9551 37.2391 89.9598 37.8452C89.9551 38.7353 89.7278 39.5071 89.278 40.1605C88.8329 40.8092 88.189 41.3134 87.3462 41.6733C86.5081 42.0284 85.4972 42.206 84.3135 42.206C83.1393 42.206 82.1166 42.026 81.2453 41.6662C80.3789 41.3063 79.7018 40.7737 79.2141 40.0682C78.7311 39.358 78.4778 38.4796 78.4541 37.4332H81.43C81.4631 37.9209 81.6028 38.3281 81.849 38.6548C82.1 38.9768 82.4338 39.2206 82.8505 39.3864C83.2719 39.5473 83.7477 39.6278 84.278 39.6278C84.7988 39.6278 85.251 39.5521 85.6345 39.4006C86.0228 39.2491 86.3235 39.0384 86.5365 38.7685C86.7496 38.4986 86.8561 38.1884 86.8561 37.8381C86.8561 37.5114 86.7591 37.2367 86.5649 37.0142C86.3755 36.7917 86.0962 36.6023 85.7269 36.446C85.3623 36.2898 84.9148 36.1477 84.3845 36.0199L82.8007 35.6222C81.5744 35.3239 80.6061 34.8575 79.8959 34.223C79.1857 33.5885 78.8329 32.7339 78.8377 31.6591C78.8329 30.7784 79.0673 30.009 79.5408 29.3509C80.019 28.6927 80.6748 28.179 81.5081 27.8097C82.3415 27.4403 83.2884 27.2557 84.349 27.2557C85.4286 27.2557 86.3708 27.4403 87.1757 27.8097C87.9854 28.179 88.6151 28.6927 89.0649 29.3509C89.5148 30.009 89.7468 30.7713 89.761 31.6378H86.8135ZM101.013 27.4545H104.088V36.9006C104.088 37.9612 103.835 38.8892 103.328 39.6847C102.826 40.4801 102.123 41.1004 101.219 41.5455C100.314 41.9858 99.2608 42.206 98.0582 42.206C96.8508 42.206 95.7949 41.9858 94.8906 41.5455C93.9862 41.1004 93.2831 40.4801 92.7812 39.6847C92.2793 38.8892 92.0284 37.9612 92.0284 36.9006V27.4545H95.1036V36.6378C95.1036 37.1918 95.2244 37.6842 95.4659 38.1151C95.7121 38.5459 96.0577 38.8845 96.5028 39.1307C96.9479 39.3769 97.4663 39.5 98.0582 39.5C98.6548 39.5 99.1733 39.3769 99.6136 39.1307C100.059 38.8845 100.402 38.5459 100.643 38.1151C100.89 37.6842 101.013 37.1918 101.013 36.6378V27.4545Z" fill="#6EC34B"/>
<path d="M92.098 9.54688H88.9872C88.9304 9.14441 88.8144 8.78693 88.6392 8.47443C88.464 8.1572 88.2391 7.88731 87.9645 7.66477C87.6899 7.44223 87.3726 7.27178 87.0128 7.15341C86.6577 7.03504 86.2718 6.97585 85.8551 6.97585C85.1023 6.97585 84.4465 7.16288 83.8878 7.53693C83.3291 7.90625 82.8958 8.44602 82.5881 9.15625C82.2803 9.86174 82.1264 10.7187 82.1264 11.7273C82.1264 12.7642 82.2803 13.6354 82.5881 14.3409C82.9006 15.0464 83.3362 15.5791 83.8949 15.9389C84.4536 16.2988 85.0999 16.4787 85.8338 16.4787C86.2457 16.4787 86.6269 16.4242 86.9773 16.3153C87.3324 16.2064 87.6473 16.0478 87.9219 15.8395C88.1965 15.6264 88.4238 15.3684 88.6037 15.0653C88.7884 14.7623 88.9162 14.4167 88.9872 14.0284L92.098 14.0426C92.0175 14.7102 91.8163 15.3542 91.4943 15.9744C91.1771 16.59 90.7486 17.1416 90.2088 17.6293C89.6738 18.1122 89.0346 18.4957 88.2912 18.7798C87.5526 19.0592 86.7169 19.1989 85.7841 19.1989C84.4867 19.1989 83.3267 18.9053 82.304 18.3182C81.286 17.7311 80.4811 16.8812 79.8892 15.7685C79.3021 14.6558 79.0085 13.3087 79.0085 11.7273C79.0085 10.1411 79.3068 8.79167 79.9034 7.67898C80.5 6.56629 81.3097 5.71875 82.3324 5.13636C83.3551 4.54924 84.5057 4.25568 85.7841 4.25568C86.6269 4.25568 87.4081 4.37405 88.1278 4.6108C88.8523 4.84754 89.4938 5.19318 90.0526 5.64773C90.6113 6.09754 91.0658 6.64915 91.4162 7.30256C91.7713 7.95597 91.9986 8.70407 92.098 9.54688ZM107.67 11.7273C107.67 13.3134 107.369 14.6629 106.768 15.7756C106.171 16.8883 105.357 17.7382 104.325 18.3253C103.297 18.9077 102.142 19.1989 100.859 19.1989C99.5661 19.1989 98.406 18.9053 97.3786 18.3182C96.3511 17.7311 95.5391 16.8812 94.9425 15.7685C94.3459 14.6558 94.0476 13.3087 94.0476 11.7273C94.0476 10.1411 94.3459 8.79167 94.9425 7.67898C95.5391 6.56629 96.3511 5.71875 97.3786 5.13636C98.406 4.54924 99.5661 4.25568 100.859 4.25568C102.142 4.25568 103.297 4.54924 104.325 5.13636C105.357 5.71875 106.171 6.56629 106.768 7.67898C107.369 8.79167 107.67 10.1411 107.67 11.7273ZM104.552 11.7273C104.552 10.6998 104.398 9.83333 104.09 9.12784C103.787 8.42235 103.359 7.88731 102.805 7.52273C102.251 7.15814 101.602 6.97585 100.859 6.97585C100.115 6.97585 99.4666 7.15814 98.9126 7.52273C98.3587 7.88731 97.9278 8.42235 97.62 9.12784C97.317 9.83333 97.1655 10.6998 97.1655 11.7273C97.1655 12.7547 97.317 13.6212 97.62 14.3267C97.9278 15.0322 98.3587 15.5672 98.9126 15.9318C99.4666 16.2964 100.115 16.4787 100.859 16.4787C101.602 16.4787 102.251 16.2964 102.805 15.9318C103.359 15.5672 103.787 15.0322 104.09 14.3267C104.398 13.6212 104.552 12.7547 104.552 11.7273ZM122.114 4.45455V19H119.458L113.13 9.84517H113.023V19H109.948V4.45455H112.647L118.925 13.6023H119.053V4.45455H122.114Z" fill="#6EC34B"/>
<path d="M78.5936 50.4545H82.3862L86.3918 60.2273H86.5623L90.568 50.4545H94.3606V65H91.3776V55.5327H91.2569L87.4927 64.929H85.4614L81.6972 55.4972H81.5765V65H78.5936V50.4545ZM110.261 57.7273C110.261 59.3134 109.96 60.6629 109.359 61.7756C108.762 62.8883 107.948 63.7382 106.916 64.3253C105.888 64.9077 104.733 65.1989 103.45 65.1989C102.157 65.1989 100.997 64.9053 99.9696 64.3182C98.9422 63.7311 98.1301 62.8812 97.5335 61.7685C96.9369 60.6558 96.6386 59.3087 96.6386 57.7273C96.6386 56.1411 96.9369 54.7917 97.5335 53.679C98.1301 52.5663 98.9422 51.7187 99.9696 51.1364C100.997 50.5492 102.157 50.2557 103.45 50.2557C104.733 50.2557 105.888 50.5492 106.916 51.1364C107.948 51.7187 108.762 52.5663 109.359 53.679C109.96 54.7917 110.261 56.1411 110.261 57.7273ZM107.143 57.7273C107.143 56.6998 106.989 55.8333 106.681 55.1278C106.378 54.4223 105.95 53.8873 105.396 53.5227C104.842 53.1581 104.193 52.9759 103.45 52.9759C102.706 52.9759 102.058 53.1581 101.504 53.5227C100.95 53.8873 100.519 54.4223 100.211 55.1278C99.9081 55.8333 99.7565 56.6998 99.7565 57.7273C99.7565 58.7547 99.9081 59.6212 100.211 60.3267C100.519 61.0322 100.95 61.5672 101.504 61.9318C102.058 62.2964 102.706 62.4787 103.45 62.4787C104.193 62.4787 104.842 62.2964 105.396 61.9318C105.95 61.5672 106.378 61.0322 106.681 60.3267C106.989 59.6212 107.143 58.7547 107.143 57.7273Z" fill="#6EC34B"/>
<path d="M128.792 45.3583C128.894 45.5921 128.787 45.8625 128.551 45.9587C128.491 45.9862 128.431 46 128.366 46C128.191 46 128.02 45.8946 127.946 45.7204C127.867 45.5508 125.989 41.5679 118.016 41.655H117.993C109.969 41.5588 108.078 45.6792 108.059 45.7204C107.957 45.9542 107.684 46.0642 107.449 45.9587C107.393 45.9355 107.342 45.9013 107.299 45.8584C107.257 45.8154 107.224 45.7645 107.201 45.7086C107.179 45.6527 107.168 45.5929 107.169 45.5328C107.17 45.4726 107.184 45.4133 107.208 45.3583C107.254 45.2529 107.897 43.8413 109.895 42.6038V37.5529C109.609 37.4738 109.348 37.3231 109.137 37.1152C108.927 36.9073 108.774 36.6493 108.693 36.3658C108.227 36.3134 107.797 36.0928 107.485 35.7462C107.172 35.3996 107 34.9513 107 34.4867C107 33.5379 107.712 32.745 108.637 32.6167C108.739 31.7642 109.47 31.0996 110.358 31.0996C111.241 31.0996 111.976 31.7642 112.078 32.6167C112.536 32.6826 112.955 32.9117 113.256 33.2611C113.556 33.6105 113.718 34.0563 113.711 34.5154C113.705 34.9745 113.529 35.4154 113.219 35.7559C112.908 36.0964 112.483 36.3132 112.022 36.3658C111.94 36.6485 111.787 36.9058 111.576 37.1135C111.366 37.3212 111.106 37.4724 110.82 37.5529V42.1042C112.369 41.3525 114.538 40.7613 117.531 40.7383V33.3317C117.073 33.2406 116.653 33.0189 116.321 32.694C115.989 32.3691 115.76 31.9551 115.662 31.5029C114.986 31.4659 114.349 31.1737 113.883 30.6862C113.417 30.1987 113.156 29.5529 113.156 28.8812C113.156 27.5017 114.242 26.3604 115.611 26.2642C115.638 25.6554 115.9 25.0802 116.344 24.6584C116.787 24.2366 117.378 24.0007 117.993 24C119.274 24 120.319 25.0083 120.37 26.2642C121.037 26.3128 121.661 26.6095 122.117 27.0949C122.572 27.5803 122.825 28.2184 122.826 28.8812C122.826 30.2838 121.716 31.4296 120.319 31.5029C120.223 31.9548 119.995 32.3687 119.664 32.6937C119.332 33.0186 118.912 33.2404 118.456 33.3317V40.7383C121.457 40.7613 123.626 41.3479 125.18 42.0996V37.5529C124.894 37.4724 124.634 37.3212 124.424 37.1135C124.213 36.9058 124.06 36.6485 123.978 36.3658C123.517 36.3132 123.092 36.0964 122.781 35.7559C122.471 35.4154 122.295 34.9745 122.289 34.5154C122.282 34.0563 122.444 33.6105 122.744 33.2611C123.045 32.9117 123.464 32.6826 123.922 32.6167C123.973 32.1994 124.176 31.8148 124.493 31.5354C124.809 31.256 125.218 31.101 125.642 31.0996C126.53 31.0996 127.261 31.7642 127.363 32.6167C128.288 32.745 129 33.5379 129 34.4867C129 35.4583 128.26 36.2604 127.307 36.3658C127.226 36.6493 127.073 36.9073 126.863 37.1152C126.652 37.3231 126.391 37.4738 126.105 37.5529V42.6038C128.107 43.8413 128.746 45.2529 128.792 45.3583Z" fill="#6EC34B"/>
</svg>
