<svg width="32" height="40" viewBox="0 0 32 40" fill="none" xmlns="http://www.w3.org/2000/svg">
<path d="M22.6778 10.093C22.6778 10.4661 22.6525 10.8391 22.606 11.208C22.6272 11.0596 22.6483 10.907 22.6651 10.7586C22.5638 11.4963 22.3696 12.2127 22.0867 12.8995C22.1416 12.7639 22.2007 12.6282 22.2556 12.4925C21.9727 13.1624 21.6096 13.7898 21.1663 14.3664L21.4323 14.023C20.9932 14.5911 20.4823 15.104 19.9166 15.5449L20.2586 15.2779C19.6843 15.7188 19.0595 16.0876 18.3924 16.3716C18.5275 16.3165 18.6626 16.2572 18.7977 16.2021C18.1137 16.4861 17.4002 16.6811 16.6655 16.7829C16.8133 16.7617 16.9653 16.7405 17.1131 16.7235C16.3742 16.821 15.6311 16.821 14.8923 16.7235C15.04 16.7447 15.192 16.7659 15.3398 16.7829C14.6051 16.6811 13.8916 16.4861 13.2076 16.2021C13.3427 16.2572 13.4778 16.3165 13.613 16.3716C12.9459 16.0876 12.321 15.723 11.7468 15.2779L12.0888 15.5449C11.523 15.104 11.0121 14.5911 10.573 14.023L10.839 14.3664C10.3999 13.7898 10.0326 13.1624 9.74973 12.4925C9.80462 12.6282 9.86373 12.7639 9.91861 12.8995C9.63573 12.2127 9.44152 11.4963 9.34019 10.7586C9.3613 10.907 9.38241 11.0596 9.3993 11.208C9.30219 10.4661 9.30219 9.71993 9.3993 8.97803C9.37819 9.12641 9.35707 9.27903 9.34019 9.42741C9.44152 8.68975 9.63573 7.97328 9.91861 7.28649C9.86373 7.42215 9.80462 7.55781 9.74973 7.69347C10.0326 7.02364 10.3957 6.3962 10.839 5.81964L10.573 6.16303C11.0121 5.59494 11.523 5.08197 12.0888 4.64107L11.7468 4.90815C12.321 4.46725 12.9459 4.09842 13.613 3.81437C13.4778 3.86949 13.3427 3.92884 13.2076 3.98395C13.8916 3.69991 14.6051 3.50489 15.3398 3.40315C15.192 3.42434 15.04 3.44554 14.8923 3.4625C15.6311 3.36499 16.3742 3.36499 17.1131 3.4625C16.9653 3.4413 16.8133 3.4201 16.6655 3.40315C17.4002 3.50489 18.1137 3.69991 18.7977 3.98395C18.6626 3.92884 18.5275 3.86949 18.3924 3.81437C19.0595 4.09842 19.6843 4.46301 20.2586 4.90815L19.9166 4.64107C20.4823 5.08197 20.9932 5.59494 21.4323 6.16303L21.1663 5.81964C21.6054 6.3962 21.9727 7.02364 22.2556 7.69347C22.2007 7.55781 22.1416 7.42215 22.0867 7.28649C22.3696 7.97328 22.5638 8.68975 22.6651 9.42741C22.644 9.27903 22.6229 9.12641 22.606 8.97803C22.6525 9.34686 22.6736 9.71993 22.6778 10.093C22.682 10.9791 23.4505 11.8312 24.3667 11.7888C25.2786 11.7464 26.0597 11.0426 26.0555 10.093C26.0471 8.06231 25.4391 5.98497 24.2484 4.33159C23.9276 3.88645 23.5856 3.44978 23.2056 3.05551C22.8214 2.657 22.3992 2.31361 21.9601 1.97869C21.1621 1.36821 20.2712 0.918827 19.3255 0.571191C15.5129 -0.832068 10.915 0.418571 8.33533 3.57273C7.98067 4.00515 7.6429 4.45453 7.3558 4.93783C7.06869 5.41689 6.84492 5.92562 6.63804 6.44284C6.24961 7.40095 6.05117 8.41842 5.97094 9.44861C5.81473 11.4666 6.33827 13.5736 7.38535 15.3033C8.39443 16.9736 9.91861 18.4066 11.7003 19.2163C12.2239 19.4537 12.7601 19.6742 13.3174 19.831C13.8705 19.9837 14.432 20.0684 15.002 20.1363C16.0407 20.2592 17.1004 20.1744 18.1264 19.9667C22.0234 19.1697 25.2871 15.7993 25.8908 11.8439C25.9795 11.2673 26.0471 10.6908 26.0471 10.1057C26.0513 9.21968 25.266 8.36755 24.3582 8.40994C23.4462 8.43962 22.6778 9.14337 22.6778 10.093ZM28.2806 36.6023H6.61693C5.65851 36.6023 4.70009 36.6108 3.74167 36.6023C3.63612 36.6023 3.53057 36.5938 3.42924 36.5811C3.57701 36.6023 3.72901 36.6235 3.87678 36.6405C3.7079 36.615 3.54746 36.5684 3.39124 36.5048C3.52635 36.5599 3.66145 36.6193 3.79656 36.6744C3.62768 36.6023 3.47146 36.509 3.32368 36.3946L3.66568 36.6617C3.53901 36.5557 3.42079 36.4412 3.31946 36.314L3.58546 36.6574C3.47146 36.509 3.38279 36.3522 3.3068 36.1826C3.36168 36.3183 3.42079 36.4539 3.47568 36.5896C3.41235 36.4327 3.37013 36.2674 3.34057 36.1021C3.36168 36.2504 3.38279 36.4031 3.39968 36.5514C3.33213 36.0385 3.37857 35.4958 3.37857 34.9786V33.1641C3.37857 32.7105 3.40391 32.2611 3.46301 31.8117C3.4419 31.9601 3.42079 32.1127 3.40391 32.2611C3.52212 31.392 3.75012 30.5399 4.09211 29.7302C4.03722 29.8658 3.97811 30.0015 3.92322 30.1371C4.25255 29.3656 4.67476 28.6406 5.18563 27.975L4.91964 28.3184C5.43052 27.6613 6.01739 27.0678 6.67604 26.5548L6.33405 26.8219C6.99692 26.3089 7.7189 25.885 8.48732 25.5543C8.35221 25.6094 8.21711 25.6688 8.082 25.7239C8.88842 25.3847 9.73284 25.1515 10.6026 25.0328C10.4548 25.054 10.3028 25.0752 10.1551 25.0922C10.7799 25.0116 11.4006 25.0074 12.0297 25.0074H19.7561C20.4528 25.0074 21.1452 25.0032 21.8418 25.0922C21.6941 25.071 21.5421 25.0498 21.3943 25.0328C22.2598 25.1515 23.1085 25.3805 23.9149 25.7239C23.7798 25.6688 23.6447 25.6094 23.5096 25.5543C24.278 25.885 25 26.3089 25.6628 26.8219L25.3209 26.5548C25.9753 27.0678 26.5664 27.6571 27.0773 28.3184L26.8113 27.975C27.3221 28.6406 27.7443 29.3656 28.0737 30.1371C28.0188 30.0015 27.9597 29.8658 27.9048 29.7302C28.2426 30.5399 28.4748 31.3878 28.593 32.2611C28.5719 32.1127 28.5508 31.9601 28.5339 31.8117C28.6141 32.4519 28.6183 33.0878 28.6183 33.7322V35.8307C28.6183 36.0724 28.6268 36.314 28.5972 36.5514C28.6183 36.4031 28.6394 36.2504 28.6563 36.1021C28.631 36.2716 28.5845 36.4327 28.5212 36.5896C28.5761 36.4539 28.6352 36.3183 28.6901 36.1826C28.6183 36.3522 28.5254 36.509 28.4114 36.6574L28.6774 36.314C28.5719 36.4412 28.4579 36.5599 28.3312 36.6617L28.6732 36.3946C28.5254 36.509 28.3692 36.5981 28.2003 36.6744C28.3354 36.6193 28.4705 36.5599 28.6057 36.5048C28.4494 36.5684 28.2848 36.6108 28.1201 36.6405C28.2679 36.6193 28.4199 36.5981 28.5677 36.5811C28.4748 36.5938 28.3777 36.5981 28.2806 36.6023C27.8457 36.6065 27.3981 36.7889 27.0857 37.0983C26.7944 37.3909 26.5706 37.8741 26.5917 38.2981C26.6339 39.2053 27.2546 40.0108 28.2003 39.9981C29.8427 39.9727 31.8482 38.9595 31.8482 37.3103C32.0382 36.6829 31.996 36.0088 31.996 35.3644C31.996 33.8891 32.0424 32.4264 31.7891 30.9638C31.4176 28.8229 30.3452 26.8092 28.8759 25.2279C27.4066 23.6465 25.4306 22.4849 23.3407 21.9677C22.1416 21.671 20.9341 21.6243 19.7097 21.6243H12.2197C10.9657 21.6243 9.72017 21.6837 8.49999 22.0101C6.42693 22.5612 4.47632 23.7356 3.03658 25.3296C1.58418 26.9364 0.532873 28.9543 0.190883 31.108C-0.0371111 32.5536 0.00546673 34.1617 0.00546673 35.6201C0.00546673 36.2899 -0.0497662 37.067 0.190894 37.7072C0.50333 38.5296 0.522161 38.8894 1.25259 39.3769C1.82257 39.7542 3.04503 39.9896 3.72056 39.9981C4.04989 40.0024 4.37921 39.9981 4.70854 39.9981H28.2848C29.1672 39.9981 30.0158 39.2181 29.9736 38.3023C29.9314 37.3781 29.2305 36.6023 28.2806 36.6023Z" fill="#6AC047"/>
</svg>
