<svg width="128" height="137" viewBox="0 0 128 137" fill="none" xmlns="http://www.w3.org/2000/svg">
<path d="M115.318 93.5573L115.318 93.5574C119.205 95.6222 122.398 98.4534 124.606 101.791C126.813 105.129 127.965 108.867 127.956 112.663V136.956H0.0440705L0.0440707 112.663L0.0440704 112.663C0.0353416 108.867 1.18689 105.129 3.39423 101.791C5.60163 98.4534 8.79454 95.6222 12.6816 93.5574L12.6816 93.5573L38.0113 80.0474L38.0541 80.0246L38.0273 79.9842L28.4778 65.6184C26.2561 62.2701 25.091 58.5199 25.0875 54.709V31.9667C25.0875 23.5034 29.1846 15.3845 36.4815 9.39685C43.7787 3.40901 53.6773 0.0440212 64 0.0440212C74.3227 0.0440212 84.2213 3.40901 91.5185 9.39685C98.8154 15.3845 102.912 23.5034 102.912 31.9667V54.7089C102.909 58.5198 101.744 62.27 99.5223 65.618L89.9727 79.9842L89.9459 80.0246L89.9887 80.0474L115.318 93.5573ZM116.87 127.911H116.914V127.867V112.663C116.919 110.371 116.224 108.115 114.892 106.101C113.561 104.088 111.636 102.381 109.294 101.137C109.294 101.137 109.294 101.137 109.294 101.137L75.3679 83.0422L89.8241 61.2936L89.7875 61.2693L89.8242 61.2936C91.1643 59.2738 91.8679 57.0102 91.8701 54.709V31.9667C91.8701 25.8961 88.9312 20.0764 83.7039 15.787C78.4769 11.4979 71.3891 9.08931 64 9.08931C56.6109 9.08931 49.5231 11.4979 44.2961 15.787C39.0688 20.0764 36.1299 25.8961 36.1299 31.9667V54.709C36.1321 57.0102 36.8357 59.2738 38.1759 61.2936L38.1759 61.2936L52.6325 83.0422L18.7067 101.137C16.3651 102.381 14.44 104.088 13.1084 106.101C11.7767 108.115 11.0812 110.371 11.0865 112.663V127.867V127.911H11.1305H116.87Z" fill="#6EC34B" stroke="#506D7B" stroke-width="0.0880423"/>
</svg>
