<svg width="104" height="103" viewBox="0 0 104 103" fill="none" xmlns="http://www.w3.org/2000/svg">
<path d="M100.93 9.33716H85.4367C85.9745 6.72501 85.4542 4.00619 83.99 1.77716C83.4869 1.19922 82.8617 0.740312 82.1596 0.433622C81.4574 0.126932 80.6959 -0.019874 79.93 0.00382191C72.5669 1.07818 65.6929 4.32833 60.19 9.33716H44.23C38.5558 4.25554 31.4813 1.00287 23.93 0.00382191C23.1565 -0.0258922 22.3862 0.117959 21.6756 0.42482C20.965 0.73168 20.3321 1.19376 19.8233 1.77716C18.3762 4.01322 17.8729 6.73116 18.4233 9.33716H2.93001C2.31117 9.33716 1.71768 9.58299 1.2801 10.0206C0.842512 10.4582 0.59668 11.0516 0.59668 11.6705V30.3372C0.59668 30.956 0.842512 31.5495 1.2801 31.9871C1.71768 32.4247 2.31117 32.6705 2.93001 32.6705H34.6167L32.0967 37.3372H7.59668C6.97784 37.3372 6.38435 37.583 5.94676 38.0206C5.50918 38.4582 5.26335 39.0517 5.26335 39.6705V100.337C5.26335 100.956 5.50918 101.549 5.94676 101.987C6.38435 102.425 6.97784 102.67 7.59668 102.67H44.93C45.5489 102.67 46.1423 102.425 46.5799 101.987C47.0175 101.549 47.2633 100.956 47.2633 100.337V40.9772L51.93 31.6438L56.5967 43.8705V100.337C56.5967 100.956 56.8425 101.549 57.2801 101.987C57.7177 102.425 58.3112 102.67 58.93 102.67H96.2634C96.8822 102.67 97.4757 102.425 97.9133 101.987C98.3509 101.549 98.5967 100.956 98.5967 100.337V39.6705C98.5967 39.0517 98.3509 38.4582 97.9133 38.0206C97.4757 37.583 96.8822 37.3372 96.2634 37.3372H70.27L68.4034 32.6705H101.07C101.689 32.6705 102.282 32.4247 102.72 31.9871C103.158 31.5495 103.403 30.956 103.403 30.3372V11.6705C103.404 11.3641 103.344 11.0605 103.228 10.7772C103.111 10.4939 102.939 10.2363 102.723 10.0192C102.507 9.8021 102.25 9.62971 101.967 9.51189C101.684 9.39406 101.381 9.3331 101.075 9.33249L100.93 9.33716ZM66.49 40.5105L64.25 39.7638C63.6621 39.5724 63.0223 39.6222 62.471 39.9022C61.9198 40.1822 61.5022 40.6695 61.31 41.2572L60.9834 42.1905L55.0567 27.2572C56.116 26.8605 57.096 26.2772 57.95 25.5305L61.1234 27.0705L62.71 31.0372L66.49 40.5105ZM41.15 42.8905L39.89 40.7905C39.6183 40.3297 39.1965 39.9762 38.6953 39.7893C38.194 39.6024 37.6438 39.5934 37.1367 39.7638L35.7367 40.2305L42.5967 27.4905L46.0034 25.9505C46.736 26.5385 47.5574 27.0098 48.43 27.3505L41.15 42.8905ZM56.5967 18.6705C56.5967 19.9082 56.105 21.0952 55.2299 21.9703C54.3547 22.8455 53.1677 23.3372 51.93 23.3372C50.6923 23.3372 49.5054 22.8455 48.6302 21.9703C47.755 21.0952 47.2633 19.9082 47.2633 18.6705C47.2633 17.4328 47.755 16.2458 48.6302 15.3707C49.5054 14.4955 50.6923 14.0038 51.93 14.0038C53.1677 14.0038 54.3547 14.4955 55.2299 15.3707C56.105 16.2458 56.5967 17.4328 56.5967 18.6705ZM80.49 4.67049C81.2367 5.55716 80.8633 8.87049 80.49 11.1572V11.9038C80.49 12.7438 80.2567 13.5372 80.1634 14.2838C80.126 14.9055 80.126 15.5288 80.1634 16.1505V17.6438C80.1634 20.3038 80.1634 25.8105 78.7167 27.4438C77.27 29.0772 70.0834 26.0905 63.97 23.3372L60.75 21.8438C61.5945 19.7156 61.5945 17.3453 60.75 15.2172C66.91 9.33716 75.2634 4.67049 79.93 4.67049C80.0187 4.63352 80.1139 4.61449 80.21 4.61449C80.3061 4.61449 80.4013 4.63352 80.49 4.67049ZM23.37 4.67049C23.4587 4.63352 23.5539 4.61449 23.65 4.61449C23.7461 4.61449 23.8413 4.63352 23.93 4.67049C31.3259 5.96842 38.1394 9.52188 43.4367 14.8438C42.9492 15.9955 42.698 17.2333 42.698 18.4838C42.698 19.7344 42.9492 20.9722 43.4367 22.1238C36.6233 25.1572 26.6833 28.9838 25.33 27.6305C23.9767 26.2772 23.93 20.4905 23.93 17.8305V16.3372C23.9674 15.7155 23.9674 15.0921 23.93 14.4705C23.93 13.7238 23.93 12.9305 23.6033 12.0905V11.3438C22.9967 8.96382 22.6233 5.69716 23.37 4.67049Z" fill="#6AC047"/>
</svg>
