<svg width="56" height="56" viewBox="0 0 56 56" fill="none" xmlns="http://www.w3.org/2000/svg">
<path d="M18.001 46.5713V53.9999" stroke="#FF9524" stroke-width="3" stroke-linecap="round" stroke-linejoin="round"/>
<path d="M6 2H30C31.0609 2 32.0783 2.39133 32.8284 3.08789C33.5786 3.78445 34 4.7292 34 5.71429V53.5357C34 53.6588 33.9473 53.7769 33.8536 53.864C33.7598 53.9511 33.6326 54 33.5 54H2V5.71429C2 4.7292 2.42143 3.78445 3.17157 3.08789C3.92172 2.39133 4.93913 2 6 2Z" stroke="#FF9524" stroke-width="3" stroke-linecap="round" stroke-linejoin="round"/>
<path d="M36 20.5713H50C51.0609 20.5713 52.0783 20.9626 52.8284 21.6592C53.5786 22.3557 54 23.3005 54 24.2856V53.9999H34V22.4284C34 21.9359 34.2107 21.4635 34.5858 21.1152C34.9609 20.767 35.4696 20.5713 36 20.5713Z" stroke="#FF9524" stroke-width="3" stroke-linecap="round" stroke-linejoin="round"/>
<rect x="43.7236" y="47.9331" width="1.98095" height="1.73333" fill="#5AA43D" stroke="#FF9524" stroke-width="1.73333"/>
<rect x="36.2954" y="47.9331" width="1.98095" height="1.73333" fill="#5AA43D" stroke="#FF9524" stroke-width="1.73333"/>
<rect x="43.7236" y="27.1333" width="1.98095" height="1.73333" fill="#5AA43D" stroke="#FF9524" stroke-width="1.73333"/>
<rect x="36.2954" y="27.1333" width="1.98095" height="1.73333" fill="#5AA43D" stroke="#FF9524" stroke-width="1.73333"/>
<rect x="27.0097" y="37.5337" width="1.98095" height="1.73333" fill="#5AA43D" stroke="#FF9524" stroke-width="1.73333"/>
<rect x="27.0097" y="47.9331" width="1.98095" height="1.73333" fill="#5AA43D" stroke="#FF9524" stroke-width="1.73333"/>
<rect x="27.0097" y="16.7329" width="1.98095" height="1.73333" fill="#5AA43D" stroke="#FF9524" stroke-width="1.73333"/>
<rect x="27.0097" y="27.1333" width="1.98095" height="1.73333" fill="#5AA43D" stroke="#FF9524" stroke-width="1.73333"/>
<rect x="16.7954" y="27.1333" width="1.98095" height="1.73333" fill="#5AA43D" stroke="#FF9524" stroke-width="1.73333"/>
<rect x="16.7954" y="37.5337" width="1.98095" height="1.73333" fill="#5AA43D" stroke="#FF9524" stroke-width="1.73333"/>
<rect x="16.7954" y="6.33346" width="1.98095" height="1.73333" fill="#5AA43D" stroke="#FF9524" stroke-width="1.73333"/>
<rect x="27.0097" y="6.33346" width="1.98095" height="1.73333" fill="#5AA43D" stroke="#FF9524" stroke-width="1.73333"/>
<rect x="16.7954" y="16.7329" width="1.98095" height="1.73333" fill="#5AA43D" stroke="#FF9524" stroke-width="1.73333"/>
<rect x="7.50973" y="27.1333" width="1.98095" height="1.73333" fill="#5AA43D" stroke="#FF9524" stroke-width="1.73333"/>
<rect x="7.50973" y="37.5337" width="1.98095" height="1.73333" fill="#5AA43D" stroke="#FF9524" stroke-width="1.73333"/>
<rect x="7.50973" y="47.9331" width="1.98095" height="1.73333" fill="#5AA43D" stroke="#FF9524" stroke-width="1.73333"/>
<path d="M8.14307 6.9668H8.85735V7.43346H8.14307V6.9668Z" fill="#5AA43D" stroke="#FF9524" stroke-width="3"/>
<path d="M8.14307 17.3662H8.85735V17.8329H8.14307V17.3662Z" fill="#5AA43D" stroke="#FF9524" stroke-width="3"/>
<rect x="43.7236" y="37.5337" width="1.98095" height="1.73333" fill="#5AA43D" stroke="#FF9524" stroke-width="1.73333"/>
<rect x="36.2954" y="37.5337" width="1.98095" height="1.73333" fill="#5AA43D" stroke="#FF9524" stroke-width="1.73333"/>
</svg>
