<svg width="54" height="54" viewBox="0 0 54 54" fill="none" xmlns="http://www.w3.org/2000/svg">
<path d="M14.8008 40.9834V47.4807" stroke="#6AC047" stroke-width="3" stroke-linecap="round" stroke-linejoin="round"/>
<path d="M5.2 2H24.4C25.2487 2 26.0626 2.34227 26.6627 2.95151C27.2629 3.56075 27.6 4.38705 27.6 5.24865V47.075C27.6 47.1827 27.5579 47.286 27.4828 47.3621C27.4078 47.4383 27.3061 47.481 27.2 47.481H2V5.24865C2 4.38705 2.33714 3.56075 2.93726 2.95151C3.53737 2.34227 4.35131 2 5.2 2Z" stroke="#6AC047" stroke-width="3" stroke-linecap="round" stroke-linejoin="round"/>
<path d="M43.5996 29.0608V21.4908C43.5996 20.6292 43.2625 19.8029 42.6623 19.1937C42.0622 18.5845 41.2483 18.2422 40.3996 18.2422H29.1996C28.7753 18.2422 28.3683 18.4133 28.0682 18.7179C27.7682 19.0226 27.5996 19.4357 27.5996 19.8665V30.122" stroke="#6AC047" stroke-width="3" stroke-linecap="round" stroke-linejoin="round"/>
<rect x="35.1855" y="23.7256" width="1.97143" height="2.03207" stroke="#6AC047"/>
<rect x="29.2422" y="23.7256" width="1.97143" height="2.03207" stroke="#6AC047"/>
<rect x="21.8145" y="32.8223" width="1.97143" height="2.03207" stroke="#6AC047"/>
<rect x="21.8145" y="41.9189" width="1.97143" height="2.03207" stroke="#6AC047"/>
<rect x="21.8145" y="14.6299" width="1.97143" height="2.03207" stroke="#6AC047"/>
<rect x="21.8145" y="23.7256" width="1.97143" height="2.03207" stroke="#6AC047"/>
<rect x="13.6426" y="23.7256" width="1.97143" height="2.03207" stroke="#6AC047"/>
<rect x="13.6426" y="32.8223" width="1.97143" height="2.03207" stroke="#6AC047"/>
<rect x="13.6426" y="5.53418" width="1.97143" height="2.03207" stroke="#6AC047"/>
<rect x="21.8145" y="5.53418" width="1.97143" height="2.03207" stroke="#6AC047"/>
<rect x="13.6426" y="14.6299" width="1.97143" height="2.03207" stroke="#6AC047"/>
<rect x="6.21387" y="23.7256" width="1.97143" height="2.03207" stroke="#6AC047"/>
<rect x="6.21387" y="32.8223" width="1.97143" height="2.03207" stroke="#6AC047"/>
<rect x="6.21387" y="41.9189" width="1.97143" height="2.03207" stroke="#6AC047"/>
<rect x="6.21387" y="5.53418" width="1.97143" height="2.03207" stroke="#6AC047"/>
<path d="M6.21387 14.6299H8.1853V16.662H6.21387V14.6299Z" stroke="#6AC047"/>
<g clip-path="url(#clip0_524_386)">
<path d="M39.7594 31.616L39.368 32.3166C38.791 31.982 38.1551 31.7666 37.4965 31.6829C36.8379 31.5991 36.1696 31.6485 35.5297 31.8283C34.8899 32.0081 34.291 32.3148 33.7673 32.7308C33.2436 33.1468 32.8054 33.664 32.4776 34.2529L31.791 33.8541C32.5572 32.4794 33.8269 31.4715 35.3211 31.0518C36.8154 30.6321 38.4117 30.8351 39.7594 31.616Z" fill="#6AC047"/>
<path d="M43.9844 29.5553C40.3879 25.6213 34.3245 25.4058 30.4686 29.0752C28.6426 30.8175 27.5577 33.2202 27.4465 35.7687C27.3352 38.3172 28.2064 40.8088 29.8734 42.7099C31.5404 44.611 33.8707 45.7704 36.3651 45.9399C38.8596 46.1093 41.3199 45.2753 43.2191 43.6164C43.3191 43.5291 43.4175 43.4393 43.5144 43.3469C43.6115 43.2548 43.7061 43.1605 43.7985 43.0651C45.5316 41.2727 46.5186 38.8661 46.5533 36.3483C46.5879 33.8306 45.6675 31.3967 43.9844 29.5553ZM44.7623 36.491C44.6924 38.545 43.8441 40.4911 42.3959 41.9195C40.9478 43.3479 39.013 44.1471 36.9989 44.1488C36.907 44.1488 36.8146 44.1472 36.7216 44.144C35.7008 44.1105 34.6966 43.8708 33.7671 43.4387C32.8377 43.0066 32.0014 42.3908 31.3067 41.6268C28.3825 38.4257 28.5542 33.3977 31.6891 30.4138C32.8135 29.3434 34.2238 28.6373 35.7415 28.3848C37.2592 28.1323 38.8162 28.3448 40.2156 28.9953C41.615 29.6458 42.7939 30.7052 43.6032 32.0394C44.4125 33.3737 44.8159 34.9228 44.7623 36.491Z" fill="#6AC047"/>
<path d="M39.7594 31.616L39.368 32.3166C38.791 31.982 38.1551 31.7666 37.4965 31.6829C36.8379 31.5991 36.1696 31.6485 35.5297 31.8283C34.8899 32.0081 34.291 32.3148 33.7673 32.7308C33.2436 33.1468 32.8054 33.664 32.4776 34.2529L31.791 33.8541C32.5572 32.4794 33.8269 31.4715 35.3211 31.0518C36.8154 30.6321 38.4117 30.8351 39.7594 31.616Z" fill="#6AC047"/>
<path d="M53.0955 50.9392L46.5927 44.0801L44.0049 46.5445L50.5087 53.4074C50.6669 53.5806 50.857 53.7201 51.0682 53.8179C51.2794 53.9158 51.5075 53.97 51.7393 53.9776H51.8021C52.1469 53.9772 52.484 53.8741 52.7722 53.681C53.0603 53.4878 53.287 53.2131 53.4243 52.8904C53.5616 52.5678 53.6037 52.2112 53.5453 51.8645C53.4869 51.5178 53.3305 51.196 53.0955 50.9387V50.9392Z" fill="#6AC047"/>
<path d="M43.5339 42.7748L42.9546 43.3262L45.285 45.8754L45.8643 45.324L43.5339 42.7748Z" fill="#6AC047"/>
<path d="M39.7594 31.616L39.368 32.3166C38.791 31.982 38.1551 31.7666 37.4965 31.6829C36.8379 31.5991 36.1696 31.6485 35.5297 31.8283C34.8899 32.0081 34.291 32.3148 33.7673 32.7308C33.2436 33.1468 32.8054 33.664 32.4776 34.2529L31.791 33.8541C32.5572 32.4794 33.8269 31.4715 35.3211 31.0518C36.8154 30.6321 38.4117 30.8351 39.7594 31.616Z" fill="#6AC047"/>
</g>
<defs>
<clipPath id="clip0_524_386">
<rect width="27.04" height="27.5918" fill="white" transform="translate(26.96 26.4082)"/>
</clipPath>
</defs>
</svg>
