<svg width="112" height="112" viewBox="0 0 112 112" fill="none" xmlns="http://www.w3.org/2000/svg">
<path d="M40.25 26.25C44.1098 26.25 47.25 23.1098 47.25 19.25C47.25 15.3902 44.1098 12.25 40.25 12.25C36.3902 12.25 33.25 15.3902 33.25 19.25C33.25 23.1098 36.3902 26.25 40.25 26.25ZM40.25 15.75C42.1798 15.75 43.75 17.3202 43.75 19.25C43.75 21.1798 42.1798 22.75 40.25 22.75C38.3202 22.75 36.75 21.1798 36.75 19.25C36.75 17.3202 38.3202 15.75 40.25 15.75ZM78.4 86.45C78.0957 86.0444 77.6304 85.7905 77.1247 85.7544L52.6247 84.0044C51.6631 83.9346 50.8233 84.6611 50.7546 85.6251C50.6857 86.5891 51.4113 87.4265 52.3755 87.4954L76.0791 89.1885L80.5 95.0834V98H33.25C32.2836 98 31.5 98.7836 31.5 99.75C31.5 100.716 32.2836 101.5 33.25 101.5H35.9417C35.3441 102.531 35 103.726 35 105C35 108.86 38.1402 112 42 112C45.8598 112 49 108.86 49 105C49 103.726 48.6559 102.531 48.0583 101.5H62.1917C61.5941 102.531 61.25 103.726 61.25 105C61.25 108.86 64.3902 112 68.25 112C72.1098 112 75.25 108.86 75.25 105C75.25 103.726 74.9059 102.531 74.3083 101.5H82.25C83.2164 101.5 84 100.716 84 99.75V94.5C84 94.1216 83.8771 93.753 83.65 93.45L78.4 86.45ZM45.5 105C45.5 106.93 43.9298 108.5 42 108.5C40.0702 108.5 38.5 106.93 38.5 105C38.5 103.07 40.0702 101.5 42 101.5C43.9298 101.5 45.5 103.07 45.5 105ZM71.75 105C71.75 106.93 70.1798 108.5 68.25 108.5C66.3202 108.5 64.75 106.93 64.75 105C64.75 103.07 66.3202 101.5 68.25 101.5C70.1798 101.5 71.75 103.07 71.75 105Z" fill="#6AC047"/>
<path d="M106.75 24.5H96.25C95.2836 24.5 94.5 25.2836 94.5 26.25H89.25C88.4969 26.25 87.8281 26.7319 87.5899 27.4466L82.6549 42.2518L79.3636 42.5261C81.2129 38.6529 82.25 34.3206 82.25 29.75C82.25 13.3459 68.9043 0 52.5 0C36.0957 0 22.75 13.3459 22.75 29.75C22.75 36.0859 24.7424 41.9648 28.1315 46.7954L22.6046 47.2559C22.1172 47.2966 21.6692 47.5392 21.3688 47.9253C21.0685 48.3114 20.9434 48.8053 21.0239 49.2879L26.2739 80.7879C26.4075 81.5898 27.076 82.1942 27.8874 82.2465L53.704 83.9121C53.876 83.9685 54.0593 84 54.25 84C54.362 84 54.4712 83.9884 54.5775 83.9683L82.1374 85.7463C82.1756 85.7489 82.2137 85.75 82.2516 85.75C83.1519 85.75 83.9143 85.0612 83.9932 84.1516L87.4932 43.9016C87.5381 43.3875 87.3537 42.88 86.9895 42.5147C86.8162 42.341 86.6104 42.2093 86.3872 42.1218L90.5113 29.75H94.5V33.25C94.5 34.2164 95.2836 35 96.25 35H106.75C109.645 35 112 32.6447 112 29.75C112 26.8553 109.645 24.5 106.75 24.5ZM38.0608 41.7145L64.4643 15.3107C64.5774 15.1977 64.7257 15.1412 64.8743 15.1412C65.0228 15.1412 65.1713 15.1979 65.2844 15.3107L66.9393 16.9656C67.1652 17.1916 67.1652 17.5593 66.9393 17.7852L40.5357 44.1892C40.3097 44.4154 39.9418 44.4152 39.7156 44.1892L38.0608 42.5344C37.8346 42.3082 37.8346 41.9407 38.0608 41.7145ZM61.25 40.25C61.25 38.3202 62.8202 36.75 64.75 36.75C66.6798 36.75 68.25 38.3202 68.25 40.25C68.25 41.9705 67.001 43.4017 65.3627 43.6929L64.7041 43.7478C62.7957 43.7229 61.25 42.1645 61.25 40.25ZM52.5 59.5V63H45.5V58.6661C47.7459 59.2097 50.0894 59.5 52.5 59.5ZM52.5 66.5V71.75H45.5V66.5H52.5ZM56 66.5H63V71.75H56V66.5ZM56 63V59.2931C58.4347 59.0063 60.7801 58.4248 63 57.5846V63H56ZM66.5 56.5154L73.5 56.3095V63H66.5V56.5154ZM71.192 52.876C71.9966 52.2244 72.7676 51.5331 73.5 50.8025V52.8082L71.192 52.876ZM66.5 51.945V47.1102L72.6101 46.601C70.8645 48.6811 68.803 50.4873 66.5 51.945ZM63 47.402V53.1171L56 53.3229V47.9852L63 47.402ZM52.5 53.4258L45.5 53.6316V48.8602L52.5 48.2768V53.4258ZM42 49.1518V53.7346L41.8478 53.7392C39.5196 52.7012 37.3693 51.3343 35.4563 49.6972L42 49.1518ZM35.1947 53.9348L35 53.9405V53.7926C35.065 53.8401 35.1295 53.888 35.1947 53.9348ZM41.1795 57.26C41.451 57.3722 41.7246 57.4803 42 57.5846V63H35V57.4418L41.1795 57.26ZM31.5 63H26.8575L25.9755 57.7073L31.5 57.5448V63ZM27.4409 66.5H31.5V71.75H28.3159L27.4409 66.5ZM35 66.5H42V71.75H35V66.5ZM42 75.25V79.6495L35 79.198V75.25H42ZM45.5 75.25H52.5V80.327L45.5 79.8753V75.25ZM56 75.25H63V81.0044L56 80.5529V75.25ZM66.5 75.25H73.5V81.6817L66.5 81.2302V75.25ZM66.5 71.75V66.5H73.5V71.75H66.5ZM77 66.5H82.0151L81.5586 71.75H77V66.5ZM77 63V56.2065L82.9253 56.0322L82.3196 63H77ZM83.8268 45.6665L83.2307 52.5221L77 52.7052V46.6058C77.0899 46.4756 77.1792 46.3448 77.2669 46.2131L83.8268 45.6665ZM26.25 29.75C26.25 15.2758 38.0258 3.5 52.5 3.5C66.9743 3.5 78.75 15.2758 78.75 29.75C78.75 34.5262 77.4671 39.0082 75.2288 42.8706L71.0887 43.2156C71.512 42.3146 71.75 41.3096 71.75 40.25C71.75 36.3902 68.6099 33.25 64.75 33.25C60.8902 33.25 57.75 36.3902 57.75 40.25C57.75 41.725 58.2098 43.094 58.9919 44.2238L44.2201 45.4547L69.4142 20.2604C70.1846 19.49 70.609 18.4653 70.609 17.3755C70.609 16.2857 70.1846 15.2613 69.4142 14.4907L67.7594 12.8358C66.1688 11.2453 63.5804 11.2451 61.9898 12.8358L35.5858 39.2396C34.8154 40.01 34.391 41.0347 34.391 42.1245C34.391 43.2143 34.8154 44.2387 35.5858 45.0093L36.6612 46.0847L32.263 46.4513C28.5086 41.9099 26.25 36.0887 26.25 29.75ZM30.8062 50.0846C31.0339 50.3274 31.2644 50.5673 31.5 50.8023V54.0433L25.3947 54.2229L24.7886 50.5859L30.8062 50.0846ZM28.8991 75.25H31.5V78.972L29.498 78.843L28.8991 75.25ZM77 81.9077V75.25H81.2543L80.6549 82.1435L77 81.9077ZM106.75 31.5H98V28H106.75C107.715 28 108.5 28.7851 108.5 29.75C108.5 30.7149 107.715 31.5 106.75 31.5Z" fill="#6AC047"/>
</svg>
